<svg width="18" height="18" viewBox="0 0 18 18" fill="none" xmlns="http://www.w3.org/2000/svg">
<path d="M9.00012 2.87914C12.3841 2.87914 15.1201 5.61514 15.1201 8.99914C15.1201 12.3831 12.3841 15.1191 9.00012 15.1191C5.61612 15.1191 2.88012 12.3831 2.88012 8.99914C2.88012 5.61514 5.61612 2.87914 9.00012 2.87914ZM9.00012 14.3991C11.9881 14.3991 14.4001 11.9871 14.4001 8.99914C14.4001 6.01114 11.9881 3.59914 9.00012 3.59914C6.01212 3.59914 3.60012 6.01114 3.60012 8.99914C3.60012 11.9871 6.01212 14.3991 9.00012 14.3991Z" fill="#FFA500"/>
<path d="M6.01219 8.38877L9.00019 11.3768L11.9882 8.38877L12.4922 8.89277L9.00019 12.3848L5.50819 8.89277L6.01219 8.38877Z" fill="#FFA500"/>
<path d="M9.36035 11.8809H8.64035V5.76086H9.36035V11.8809Z" fill="#FFA500"/>
</svg>
