<svg width="24" height="24" viewBox="0 0 24 24" fill="none" xmlns="http://www.w3.org/2000/svg">
<path d="M12 0C5.3724 0 0 5.3724 0 12C0 18.6276 5.3724 24 12 24C18.6276 24 24 18.6276 24 12C24 5.3724 18.6276 0 12 0Z" fill="url(#paint0_linear_2305_4766)"/>
<path d="M13.7424 15.6767H16.534L16.9725 12.6993H13.7424V11.0719C13.7424 9.83522 14.1275 8.73839 15.2293 8.73839H17V6.14043C16.6888 6.09626 16.0308 6 14.7876 6C12.1912 6 10.6692 7.43941 10.6692 10.7191V12.6999H8V15.6772H10.6687V23.8607C11.1972 23.9434 11.7328 24 12.2824 24C12.7791 24 13.264 23.9524 13.7424 23.8845V15.6767Z" fill="white"/>
<defs>
<linearGradient id="paint0_linear_2305_4766" x1="3.5958" y1="3.5958" x2="21.969" y2="21.969" gradientUnits="userSpaceOnUse">
<stop stop-color="#2AA4F4"/>
<stop offset="1" stop-color="#007AD9"/>
</linearGradient>
</defs>
</svg>
