<svg width="364" height="188" viewBox="0 0 364 188" fill="none" xmlns="http://www.w3.org/2000/svg">
<path d="M47.5231 177.539C37.7542 171.18 30.6513 159.75 32.105 148.194C40.9013 157.317 52.6446 163.037 65.2571 164.344C70.1231 164.83 75.5859 164.865 79.0414 168.321C81.1916 170.472 82.1052 173.615 82.1522 176.653C82.1991 179.692 81.4681 182.683 80.7418 185.635L80.9203 186.372C69.268 185.942 57.2921 183.897 47.5231 177.539Z" fill="#E7E7E7"/>
<path d="M32.3504 148.192C36.0047 157.114 42.3808 164.66 50.5729 169.757C52.3169 170.885 54.2282 171.732 56.2363 172.266C58.2093 172.723 60.2688 172.644 62.2009 172.037C64.0137 171.508 65.8067 170.756 67.7168 170.676C68.6952 170.649 69.6682 170.83 70.5719 171.205C71.4757 171.58 72.2898 172.142 72.9608 172.854C74.6791 174.584 75.6727 176.827 76.568 179.054C77.562 181.527 78.5553 184.112 80.5798 185.944C80.8251 186.166 80.4659 186.533 80.221 186.311C76.6987 183.124 76.311 178.011 73.5424 174.314C72.2505 172.589 70.4302 171.242 68.2049 171.185C66.2589 171.135 64.4094 171.908 62.5784 172.46C60.7023 173.08 58.7029 173.231 56.7547 172.901C54.7259 172.471 52.7852 171.699 51.0156 170.619C46.9929 168.249 43.3682 165.263 40.2743 161.769C36.721 157.801 33.8735 153.256 31.8549 148.329C31.7301 148.024 32.2264 147.889 32.3504 148.192Z" fill="white"/>
<path d="M47.8382 168.27C46.7955 169.527 45.3394 170.372 43.7301 170.656C42.1208 170.939 40.463 170.642 39.0528 169.818C38.7681 169.65 39.0158 169.2 39.301 169.368C40.6127 170.138 42.157 170.415 43.655 170.148C45.1531 169.881 46.5062 169.088 47.4702 167.912C47.68 167.656 48.0468 168.016 47.8382 168.27Z" fill="white"/>
<path d="M61.3163 172.426C61.0346 169.101 59.5086 166.005 57.0426 163.754C56.7981 163.531 57.1572 163.164 57.4014 163.386C59.9631 165.733 61.5446 168.959 61.8302 172.419C61.8572 172.749 61.3432 172.754 61.3163 172.426Z" fill="white"/>
<path d="M37.3674 157.587C37.8723 157.184 38.2692 156.663 38.5226 156.07C38.7759 155.476 38.8778 154.829 38.819 154.187C38.7878 153.858 39.3019 153.853 39.3328 154.18C39.3945 154.891 39.2812 155.605 39.0027 156.261C38.7242 156.917 38.2891 157.495 37.7353 157.945C37.6867 157.992 37.622 158.018 37.5545 158.019C37.4871 158.02 37.4218 157.995 37.372 157.95C37.3235 157.902 37.2958 157.837 37.2949 157.769C37.2941 157.701 37.3201 157.636 37.3674 157.587Z" fill="white"/>
<path d="M65.4288 127.048C65.4541 127.253 65.4794 127.458 65.5085 127.665C65.8632 130.421 66.4414 133.143 67.2374 135.805C67.2957 136.012 67.3578 136.22 67.4219 136.425C69.4082 142.818 72.5654 148.787 76.7333 154.029C78.3937 156.113 80.2104 158.069 82.1678 159.878C84.8712 162.376 88.0013 164.869 89.6714 168.021C89.8493 168.348 90.0068 168.685 90.143 169.032L81.8085 186.097C81.7701 186.127 81.7354 186.158 81.6969 186.188L81.3953 186.884C81.2878 186.798 81.1782 186.706 81.0708 186.62C81.0082 186.57 80.9475 186.517 80.885 186.467C80.8438 186.432 80.8028 186.398 80.7637 186.369C80.75 186.358 80.7364 186.346 80.7265 186.337C80.6875 186.308 80.6542 186.277 80.619 186.25C80.0049 185.739 79.3933 185.223 78.7843 184.701C78.7804 184.699 78.7804 184.699 78.7783 184.693C74.1477 180.707 69.8097 176.299 66.2793 171.373C66.1732 171.225 66.063 171.075 65.9606 170.919C64.3817 168.69 62.9877 166.336 61.7927 163.88C61.1427 162.534 60.5614 161.155 60.051 159.749C58.7391 156.115 58.0077 152.297 57.8836 148.436C57.6373 140.739 59.8585 133.049 65.0295 127.47C65.1619 127.328 65.2925 127.189 65.4288 127.048Z" fill="#E7E7E7"/>
<path d="M65.6262 127.192C63.1658 136.513 63.7085 146.372 67.1772 155.368C67.8895 157.318 68.9051 159.143 70.1865 160.777C71.4863 162.329 73.1783 163.504 75.0867 164.181C76.8535 164.849 78.738 165.327 80.3115 166.411C81.1088 166.979 81.7769 167.708 82.2723 168.551C82.7676 169.394 83.0789 170.332 83.1858 171.304C83.5151 173.718 82.9562 176.107 82.3283 178.424C81.6313 180.996 80.8664 183.657 81.3787 186.337C81.4408 186.662 80.9327 186.739 80.8707 186.415C79.9794 181.752 82.752 177.436 82.77 172.819C82.7784 170.665 82.1369 168.495 80.3944 167.111C78.8707 165.901 76.9277 165.407 75.1331 164.746C73.2616 164.113 71.574 163.031 70.2175 161.596C68.8569 160.033 67.7726 158.249 67.0111 156.322C65.2273 152.012 64.1332 147.448 63.7689 142.797C63.3236 137.492 63.7901 132.15 65.1483 127.003C65.2325 126.684 65.7098 126.875 65.6262 127.192Z" fill="white"/>
<path d="M65.8897 152.538C64.2996 152.914 62.6273 152.714 61.1715 151.972C59.7157 151.231 58.5711 149.997 57.9423 148.49C57.816 148.185 58.2851 147.975 58.4114 148.28C58.9944 149.684 60.0607 150.834 61.4178 151.521C62.7748 152.209 64.3333 152.39 65.8119 152.03C66.1333 151.953 66.2092 152.46 65.8897 152.538Z" fill="white"/>
<path d="M74.1464 163.962C75.9255 161.138 76.5736 157.748 75.9614 154.467C75.9005 154.143 76.4085 154.065 76.4694 154.39C77.1 157.804 76.4184 161.331 74.5606 164.265C74.3833 164.545 73.9701 164.24 74.1464 163.962Z" fill="white"/>
<path d="M63.9698 137.71C64.6155 137.693 65.2466 137.515 65.8066 137.194C66.3666 136.872 66.8379 136.417 67.1781 135.869C67.3518 135.587 67.7648 135.893 67.5923 136.173C67.2136 136.777 66.6925 137.279 66.0746 137.635C65.4567 137.992 64.7607 138.192 64.0476 138.218C63.9806 138.226 63.913 138.208 63.8586 138.168C63.8042 138.128 63.7671 138.069 63.7547 138.003C63.7448 137.936 63.7618 137.867 63.8021 137.812C63.8423 137.758 63.9026 137.721 63.9698 137.71Z" fill="white"/>
<path d="M345.648 177.539C355.417 171.18 362.52 159.75 361.066 148.194C352.27 157.317 340.526 163.037 327.914 164.344C323.048 164.83 317.585 164.865 314.129 168.321C311.979 170.472 311.066 173.615 311.019 176.653C310.972 179.692 311.703 182.683 312.429 185.635L312.251 186.372C323.903 185.942 335.879 183.897 345.648 177.539Z" fill="#E7E7E7"/>
<path d="M360.821 148.192C357.167 157.114 350.791 164.66 342.599 169.757C340.855 170.885 338.943 171.732 336.935 172.266C334.962 172.723 332.903 172.644 330.971 172.037C329.158 171.508 327.365 170.756 325.455 170.676C324.476 170.649 323.503 170.83 322.6 171.205C321.696 171.58 320.882 172.142 320.211 172.854C318.493 174.584 317.499 176.827 316.604 179.054C315.61 181.527 314.616 184.112 312.592 185.944C312.347 186.166 312.706 186.533 312.951 186.311C316.473 183.124 316.861 178.011 319.629 174.314C320.921 172.589 322.741 171.242 324.967 171.185C326.913 171.135 328.762 171.908 330.593 172.46C332.469 173.08 334.469 173.231 336.417 172.901C338.446 172.471 340.386 171.699 342.156 170.619C346.179 168.249 349.803 165.263 352.897 161.769C356.451 157.801 359.298 153.256 361.317 148.329C361.442 148.024 360.945 147.889 360.821 148.192Z" fill="white"/>
<path d="M345.334 168.27C346.376 169.527 347.832 170.372 349.442 170.656C351.051 170.939 352.709 170.642 354.119 169.818C354.404 169.65 354.156 169.2 353.871 169.368C352.559 170.138 351.015 170.415 349.517 170.148C348.019 169.881 346.666 169.088 345.702 167.912C345.492 167.656 345.125 168.016 345.334 168.27Z" fill="white"/>
<path d="M331.855 172.426C332.136 169.101 333.662 166.005 336.128 163.754C336.373 163.531 336.014 163.164 335.77 163.386C333.208 165.733 331.626 168.959 331.341 172.419C331.314 172.749 331.828 172.754 331.855 172.426Z" fill="white"/>
<path d="M355.804 157.587C355.299 157.184 354.902 156.663 354.649 156.07C354.396 155.476 354.294 154.829 354.353 154.187C354.384 153.858 353.87 153.853 353.839 154.18C353.777 154.891 353.89 155.605 354.169 156.261C354.447 156.917 354.882 157.495 355.436 157.945C355.485 157.992 355.549 158.018 355.617 158.019C355.684 158.02 355.75 157.995 355.8 157.95C355.848 157.902 355.876 157.837 355.877 157.769C355.877 157.701 355.851 157.636 355.804 157.587Z" fill="white"/>
<path d="M327.744 127.048C327.718 127.253 327.693 127.458 327.664 127.665C327.309 130.421 326.731 133.143 325.935 135.805C325.877 136.012 325.814 136.22 325.75 136.425C323.764 142.818 320.607 148.787 316.439 154.029C314.779 156.113 312.962 158.069 311.004 159.878C308.301 162.376 305.171 164.869 303.501 168.021C303.323 168.348 303.165 168.685 303.029 169.032L311.364 186.097C311.402 186.127 311.437 186.158 311.475 186.188L311.777 186.884C311.884 186.798 311.994 186.706 312.102 186.62C312.164 186.57 312.225 186.517 312.287 186.467C312.328 186.432 312.369 186.398 312.409 186.369C312.422 186.358 312.436 186.346 312.446 186.337C312.485 186.308 312.518 186.277 312.553 186.25C313.167 185.739 313.779 185.223 314.388 184.701C314.392 184.699 314.392 184.699 314.394 184.693C319.025 180.707 323.363 176.299 326.893 171.373C326.999 171.225 327.109 171.075 327.212 170.919C328.791 168.69 330.185 166.336 331.38 163.88C332.03 162.534 332.611 161.155 333.121 159.749C334.433 156.115 335.165 152.297 335.289 148.436C335.535 140.739 333.314 133.049 328.143 127.47C328.01 127.328 327.88 127.189 327.744 127.048Z" fill="#E7E7E7"/>
<path d="M327.546 127.192C330.006 136.513 329.464 146.372 325.995 155.368C325.283 157.318 324.267 159.143 322.986 160.777C321.686 162.329 319.994 163.504 318.085 164.181C316.319 164.849 314.434 165.327 312.86 166.411C312.063 166.979 311.395 167.708 310.9 168.551C310.404 169.394 310.093 170.332 309.986 171.304C309.657 173.718 310.216 176.107 310.844 178.424C311.541 180.996 312.306 183.657 311.793 186.337C311.731 186.662 312.239 186.739 312.301 186.415C313.193 181.752 310.42 177.436 310.402 172.819C310.394 170.665 311.035 168.495 312.778 167.111C314.301 165.901 316.244 165.407 318.039 164.746C319.91 164.113 321.598 163.031 322.954 161.596C324.315 160.033 325.399 158.249 326.161 156.322C327.945 152.012 329.039 147.448 329.403 142.797C329.848 137.492 329.382 132.15 328.024 127.003C327.94 126.684 327.462 126.875 327.546 127.192Z" fill="white"/>
<path d="M327.282 152.538C328.872 152.914 330.544 152.714 332 151.972C333.456 151.231 334.601 149.997 335.229 148.49C335.356 148.185 334.887 147.975 334.76 148.28C334.177 149.684 333.111 150.834 331.754 151.521C330.397 152.209 328.838 152.39 327.36 152.03C327.038 151.953 326.962 152.46 327.282 152.538Z" fill="white"/>
<path d="M319.025 163.962C317.246 161.138 316.598 157.748 317.21 154.467C317.271 154.143 316.763 154.065 316.702 154.39C316.071 157.804 316.753 161.331 318.611 164.265C318.788 164.545 319.201 164.24 319.025 163.962Z" fill="white"/>
<path d="M329.203 137.71C328.557 137.693 327.926 137.515 327.366 137.194C326.806 136.872 326.335 136.417 325.995 135.869C325.821 135.587 325.408 135.893 325.58 136.173C325.959 136.777 326.48 137.279 327.098 137.635C327.716 137.992 328.412 138.192 329.125 138.218C329.192 138.226 329.26 138.208 329.314 138.168C329.368 138.128 329.406 138.069 329.418 138.003C329.428 137.936 329.411 137.867 329.371 137.812C329.33 137.758 329.27 137.721 329.203 137.71Z" fill="white"/>
<path d="M66.7647 121.463C66.3951 121.241 66.0787 120.941 65.8379 120.583C65.5972 120.226 65.4378 119.82 65.371 119.394C65.3043 118.968 65.3318 118.533 65.4516 118.119C65.5715 117.706 65.7807 117.323 66.0646 116.998L60.8682 107.901L66.3059 108.252L70.4069 116.837C70.9209 117.35 71.2289 118.033 71.2724 118.757C71.3159 119.481 71.092 120.196 70.643 120.766C70.1941 121.336 69.5513 121.722 68.8365 121.851C68.1217 121.979 67.3845 121.841 66.7647 121.463Z" fill="#FFB6B6"/>
<path d="M26.7622 183.48H30.36L32.0715 169.62L26.7617 169.621L26.7622 183.48Z" fill="#FFB6B6"/>
<path d="M25.8447 182.307L32.9296 182.307C34.127 182.307 35.2756 182.782 36.1223 183.628C36.9691 184.473 37.4448 185.62 37.4449 186.816V186.963L25.8449 186.963L25.8447 182.307Z" fill="#2F2E41"/>
<path d="M51.411 183.48H55.0084L56.7199 169.62L51.4102 169.621L51.411 183.48Z" fill="#FFB6B6"/>
<path d="M50.4941 182.307L57.579 182.307C58.7764 182.307 59.9251 182.782 60.7718 183.628C61.6185 184.473 62.0942 185.62 62.0943 186.816V186.963L50.4944 186.963L50.4941 182.307Z" fill="#2F2E41"/>
<path d="M60.6623 108.292C60.6623 108.292 61.6518 122.367 59.7029 129.455C57.754 136.544 57.406 179.41 57.406 179.41H50.8735L45.2116 121.06L32.1588 179.616L25.9365 179.189L29.3489 110.188L60.6623 108.292Z" fill="#2F2E41"/>
<path d="M32.0482 60.8469L37.0421 57.207L45.4102 59.027L47.6754 64.403L51.5786 66.3359C52.862 66.9715 53.9718 67.9088 54.8124 69.0673C55.6531 70.2258 56.1995 71.5709 56.4048 72.9869L61.981 111.448L29.3487 110.188L25.3982 64.8926C25.3569 64.4194 25.4111 63.9428 25.5575 63.491C25.7039 63.0391 25.9396 62.6212 26.2506 62.2619C26.5616 61.9026 26.9416 61.6093 27.3682 61.3993C27.7947 61.1893 28.259 61.0669 28.7337 61.0394L32.0482 60.8469Z" fill="#FFD894"/>
<path d="M53.6436 69.3408L56.6575 73.3988L69.7848 113.39L63.6315 115.851L53.7784 97.2158L53.6436 69.3408Z" fill="#FFD894"/>
<path d="M42.7182 55.3068C46.7435 55.3068 50.0066 52.0475 50.0066 48.0269C50.0066 44.0064 46.7435 40.7471 42.7182 40.7471C38.6928 40.7471 35.4297 44.0064 35.4297 48.0269C35.4297 52.0475 38.6928 55.3068 42.7182 55.3068Z" fill="#FFB9B9"/>
<path opacity="0.1" d="M26.8301 77.9775L38.7238 94.5005L52.0186 103.16L26.8301 77.9775Z" fill="black"/>
<path d="M38.8555 53.2898C38.3485 52.2788 37.827 51.1783 38.0208 50.0643C38.2146 48.9503 39.4945 47.9796 40.4824 48.5319C40.8922 47.0524 42.7066 46.405 44.2338 46.5758C45.7611 46.7465 47.1674 47.4824 48.6714 47.7983C50.1753 48.1142 52.0017 47.8635 52.8146 46.5608L50.8697 46.5272L52.895 44.1809L50.5473 44.0055C51.3605 43.1289 51.1445 41.6396 50.3572 40.7397C49.57 39.8399 48.3754 39.4141 47.2098 39.1448C44.8828 38.6091 42.4707 38.5537 40.1215 38.9821C39.0139 39.1526 37.9467 39.5236 36.9723 40.0767C36.0548 40.6356 35.2967 41.4209 34.7708 42.3571C34.2034 43.4133 33.8967 44.5895 33.8763 45.788C33.8416 47.3932 34.2109 48.9815 34.9503 50.4073C35.6897 51.833 36.7755 53.0506 38.1083 53.9484" fill="#2F2E41"/>
<path d="M310.227 187.15H84.0417C81.7124 187.147 79.4792 186.222 77.8321 184.577C76.185 182.932 75.2585 180.701 75.2559 178.375V8.77519C75.2585 6.44865 76.185 4.21816 77.8321 2.57306C79.4792 0.927966 81.7124 0.00261193 84.0417 0H310.227C312.557 0.00265323 314.79 0.928028 316.437 2.57312C318.084 4.21821 319.01 6.44868 319.013 8.77519V178.375C319.01 180.701 318.084 182.932 316.437 184.577C314.79 186.222 312.557 187.147 310.227 187.15Z" fill="#E7E7E7"/>
<path d="M253.3 77.8705H218.385C216.659 77.8705 215.005 77.1859 213.784 75.9673C212.564 74.7486 211.879 73.0957 211.879 71.3723C211.879 69.6488 212.564 67.996 213.784 66.7773C215.005 65.5587 216.659 64.874 218.385 64.874H253.3C255.026 64.874 256.681 65.5587 257.901 66.7773C259.121 67.996 259.806 69.6488 259.806 71.3723C259.806 73.0957 259.121 74.7486 257.901 75.9673C256.681 77.1859 255.026 77.8705 253.3 77.8705Z" fill="white"/>
<path d="M222.722 95.6326H214.481C213.849 95.6326 213.242 95.3816 212.794 94.9347C212.347 94.4879 212.096 93.8818 212.096 93.2499C212.096 92.618 212.347 92.0119 212.794 91.5651C213.242 91.1182 213.849 90.8672 214.481 90.8672H222.722C223.355 90.8672 223.962 91.1182 224.409 91.5651C224.856 92.0119 225.108 92.618 225.108 93.2499C225.108 93.8818 224.856 94.4879 224.409 94.9347C223.962 95.3816 223.355 95.6326 222.722 95.6326Z" fill="white"/>
<path d="M256.988 95.6326H248.747C248.114 95.6326 247.507 95.3816 247.06 94.9347C246.613 94.4879 246.361 93.8818 246.361 93.2499C246.361 92.618 246.613 92.0119 247.06 91.5651C247.507 91.1182 248.114 90.8672 248.747 90.8672H256.988C257.62 90.8672 258.227 91.1182 258.675 91.5651C259.122 92.0119 259.373 92.618 259.373 93.2499C259.373 93.8818 259.122 94.4879 258.675 94.9347C258.227 95.3816 257.62 95.6326 256.988 95.6326Z" fill="white"/>
<path d="M239.638 95.6326H231.397C230.765 95.6326 230.158 95.3816 229.71 94.9347C229.263 94.4879 229.012 93.8818 229.012 93.2499C229.012 92.618 229.263 92.0119 229.71 91.5651C230.158 91.1182 230.765 90.8672 231.397 90.8672H239.638C240.271 90.8672 240.878 91.1182 241.325 91.5651C241.772 92.0119 242.024 92.618 242.024 93.2499C242.024 93.8818 241.772 94.4879 241.325 94.9347C240.878 95.3816 240.271 95.6326 239.638 95.6326Z" fill="white"/>
<path d="M222.722 104.73H214.481C213.849 104.73 213.242 104.479 212.794 104.032C212.347 103.586 212.096 102.979 212.096 102.348C212.096 101.716 212.347 101.11 212.794 100.663C213.242 100.216 213.849 99.9648 214.481 99.9648H222.722C223.355 99.9648 223.962 100.216 224.409 100.663C224.856 101.11 225.108 101.716 225.108 102.348C225.108 102.979 224.856 103.586 224.409 104.032C223.962 104.479 223.355 104.73 222.722 104.73Z" fill="white"/>
<path d="M256.988 104.73H248.747C248.114 104.73 247.507 104.479 247.06 104.032C246.613 103.586 246.361 102.979 246.361 102.348C246.361 101.716 246.613 101.11 247.06 100.663C247.507 100.216 248.114 99.9648 248.747 99.9648H256.988C257.62 99.9648 258.227 100.216 258.675 100.663C259.122 101.11 259.373 101.716 259.373 102.348C259.373 102.979 259.122 103.586 258.675 104.032C258.227 104.479 257.62 104.73 256.988 104.73Z" fill="white"/>
<path d="M239.638 104.73H231.397C230.765 104.73 230.158 104.479 229.71 104.032C229.263 103.586 229.012 102.979 229.012 102.348C229.012 101.716 229.263 101.11 229.71 100.663C230.158 100.216 230.765 99.9648 231.397 99.9648H239.638C240.271 99.9648 240.878 100.216 241.325 100.663C241.772 101.11 242.024 101.716 242.024 102.348C242.024 102.979 241.772 103.586 241.325 104.032C240.878 104.479 240.271 104.73 239.638 104.73Z" fill="white"/>
<path d="M222.722 113.828H214.481C213.849 113.828 213.242 113.577 212.794 113.13C212.347 112.683 212.096 112.077 212.096 111.445C212.096 110.813 212.347 110.207 212.794 109.76C213.242 109.314 213.849 109.062 214.481 109.062H222.722C223.355 109.062 223.962 109.314 224.409 109.76C224.856 110.207 225.108 110.813 225.108 111.445C225.108 112.077 224.856 112.683 224.409 113.13C223.962 113.577 223.355 113.828 222.722 113.828Z" fill="white"/>
<path d="M256.988 113.828H248.747C248.114 113.828 247.507 113.577 247.06 113.13C246.613 112.683 246.361 112.077 246.361 111.445C246.361 110.813 246.613 110.207 247.06 109.76C247.507 109.314 248.114 109.062 248.747 109.062H256.988C257.62 109.062 258.227 109.314 258.675 109.76C259.122 110.207 259.373 110.813 259.373 111.445C259.373 112.077 259.122 112.683 258.675 113.13C258.227 113.577 257.62 113.828 256.988 113.828Z" fill="white"/>
<path d="M239.638 113.828H231.397C230.765 113.828 230.158 113.577 229.71 113.13C229.263 112.683 229.012 112.077 229.012 111.445C229.012 110.813 229.263 110.207 229.71 109.76C230.158 109.314 230.765 109.062 231.397 109.062H239.638C240.271 109.062 240.878 109.314 241.325 109.76C241.772 110.207 242.024 110.813 242.024 111.445C242.024 112.077 241.772 112.683 241.325 113.13C240.878 113.577 240.271 113.828 239.638 113.828Z" fill="white"/>
<path d="M222.722 122.926H214.481C213.849 122.926 213.242 122.675 212.794 122.228C212.347 121.781 212.096 121.175 212.096 120.543C212.096 119.911 212.347 119.305 212.794 118.858C213.242 118.411 213.849 118.16 214.481 118.16H222.722C223.355 118.16 223.962 118.411 224.409 118.858C224.856 119.305 225.108 119.911 225.108 120.543C225.108 121.175 224.856 121.781 224.409 122.228C223.962 122.675 223.355 122.926 222.722 122.926Z" fill="white"/>
<path d="M256.988 122.926H248.747C248.114 122.926 247.507 122.675 247.06 122.228C246.613 121.781 246.361 121.175 246.361 120.543C246.361 119.911 246.613 119.305 247.06 118.858C247.507 118.411 248.114 118.16 248.747 118.16H256.988C257.62 118.16 258.227 118.411 258.675 118.858C259.122 119.305 259.373 119.911 259.373 120.543C259.373 121.175 259.122 121.781 258.675 122.228C258.227 122.675 257.62 122.926 256.988 122.926Z" fill="white"/>
<path d="M239.638 122.926H231.397C230.765 122.926 230.158 122.675 229.71 122.228C229.263 121.781 229.012 121.175 229.012 120.543C229.012 119.911 229.263 119.305 229.71 118.858C230.158 118.411 230.765 118.16 231.397 118.16H239.638C240.271 118.16 240.878 118.411 241.325 118.858C241.772 119.305 242.024 119.911 242.024 120.543C242.024 121.175 241.772 121.781 241.325 122.228C240.878 122.675 240.271 122.926 239.638 122.926Z" fill="white"/>
<path d="M166.987 113.394C179.204 113.394 189.108 103.502 189.108 91.3001C189.108 79.0979 179.204 69.2061 166.987 69.2061C154.771 69.2061 144.867 79.0979 144.867 91.3001C144.867 103.502 154.771 113.394 166.987 113.394Z" fill="#CACACA"/>
<path d="M166.988 118.376C165.263 118.374 163.61 117.689 162.39 116.471C161.17 115.253 160.484 113.601 160.482 111.878V70.7223C160.482 69.8685 160.65 69.0229 160.976 68.2339C161.303 67.4449 161.782 66.7279 162.386 66.1239C162.99 65.5199 163.708 65.0408 164.497 64.7139C165.287 64.387 166.134 64.2188 166.988 64.2188C167.843 64.2188 168.69 64.387 169.479 64.7139C170.269 65.0408 170.986 65.5199 171.591 66.1239C172.195 66.7279 172.674 67.4449 173.001 68.2339C173.327 69.0229 173.495 69.8685 173.494 70.7223V111.878C173.492 113.601 172.806 115.253 171.587 116.471C170.367 117.689 168.713 118.374 166.988 118.376Z" fill="white"/>
<path d="M224.777 75.0805H218.704C218.474 75.0805 218.254 74.9892 218.091 74.8268C217.928 74.6643 217.837 74.4439 217.837 74.2141C217.837 73.9843 217.928 73.7639 218.091 73.6014C218.254 73.4389 218.474 73.3477 218.704 73.3477H224.777C225.007 73.3477 225.227 73.4389 225.39 73.6014C225.553 73.7639 225.644 73.9843 225.644 74.2141C225.644 74.4439 225.553 74.6643 225.39 74.8268C225.227 74.9892 225.007 75.0805 224.777 75.0805Z" fill="#E4E4E4"/>
<path d="M234.319 75.2973H228.246C228.016 75.2973 227.796 75.206 227.633 75.0436C227.47 74.8811 227.379 74.6607 227.379 74.4309C227.379 74.2011 227.47 73.9807 227.633 73.8182C227.796 73.6557 228.016 73.5645 228.246 73.5645H234.319C234.549 73.5645 234.769 73.6557 234.932 73.8182C235.095 73.9807 235.186 74.2011 235.186 74.4309C235.186 74.6607 235.095 74.8811 234.932 75.0436C234.769 75.206 234.549 75.2973 234.319 75.2973Z" fill="#E4E4E4"/>
<path d="M243.861 75.5141H237.788C237.558 75.5141 237.338 75.4228 237.175 75.2603C237.012 75.0979 236.921 74.8775 236.921 74.6477C236.921 74.4179 237.012 74.1975 237.175 74.035C237.338 73.8725 237.558 73.7812 237.788 73.7812H243.861C244.091 73.7812 244.311 73.8725 244.474 74.035C244.637 74.1975 244.728 74.4179 244.728 74.6477C244.728 74.8775 244.637 75.0979 244.474 75.2603C244.311 75.4228 244.091 75.5141 243.861 75.5141Z" fill="#E4E4E4"/>
<path d="M253.403 75.7299H247.33C247.1 75.7299 246.88 75.6387 246.717 75.4762C246.554 75.3137 246.463 75.0933 246.463 74.8635C246.463 74.6337 246.554 74.4133 246.717 74.2508C246.88 74.0884 247.1 73.9971 247.33 73.9971H253.403C253.633 73.9971 253.853 74.0884 254.016 74.2508C254.179 74.4133 254.27 74.6337 254.27 74.8635C254.27 75.0933 254.179 75.3137 254.016 75.4762C253.853 75.6387 253.633 75.7299 253.403 75.7299Z" fill="#E4E4E4"/>
<path d="M104.097 160.399C104.097 161.471 104.31 162.534 104.724 163.523C105.138 164.513 105.744 165.411 106.509 166.165H102.926C101.869 166.165 100.822 165.957 99.8451 165.553C98.8685 165.149 97.9811 164.557 97.2337 163.81C96.4862 163.063 95.8932 162.177 95.4887 161.202C95.0842 160.226 94.876 159.181 94.876 158.125V27.7774C94.876 26.7216 95.0842 25.6761 95.4887 24.7006C95.8932 23.7251 96.4862 22.8388 97.2337 22.0922C97.9811 21.3456 98.8685 20.7534 99.8452 20.3493C100.822 19.9453 101.869 19.7373 102.926 19.7373H108.139C106.91 20.4516 105.889 21.4757 105.18 22.7072C104.471 23.9387 104.097 25.3346 104.097 26.7554L104.097 160.399Z" fill="#E8E8E8"/>
<path d="M363.539 188H0.459412C0.337446 188 0.220599 187.947 0.134481 187.853C0.0483629 187.759 0 187.632 0 187.5C0 187.368 0.0483629 187.241 0.134481 187.147C0.220599 187.053 0.337446 187 0.459412 187H363.539C363.661 187 363.779 187.053 363.865 187.146C363.951 187.24 364 187.367 364 187.5C364 187.633 363.951 187.76 363.865 187.854C363.779 187.947 363.661 188 363.539 188Z" fill="#F0F0F0"/>
<path d="M103.23 57.8255C100.489 57.0587 97.7373 56.3482 94.9758 55.694C85.5327 53.4426 75.9594 51.7758 66.3106 50.7034C64.6751 50.2732 62.9357 50.5057 61.471 51.3504C60.0064 52.195 58.935 53.5834 58.4903 55.2132L53.6716 72.9751C53.2292 74.6123 53.4553 76.358 54.3002 77.8289C55.1451 79.2999 56.5398 80.3758 58.1782 80.8207L58.2432 80.8337C64.6191 81.5571 71.0556 82.5622 77.4574 83.8445C78.03 83.9572 78.5983 84.0741 79.1707 84.1954C81.2222 84.62 83.268 85.0734 85.3079 85.5557C86.2015 85.7637 87.0905 85.9803 87.984 86.2012C90.3869 86.7991 92.7913 87.4359 95.1971 88.1117C97.8732 88.8655 100.551 89.6699 103.23 90.5247C103.52 90.6114 103.811 90.7024 104.097 90.7977V58.0724C103.811 57.9858 103.52 57.9035 103.23 57.8255Z" fill="white"/>
<path d="M103.23 57.8255C100.489 57.0587 97.7373 56.3482 94.9758 55.694C85.5327 53.4426 75.9594 51.7758 66.3106 50.7034C64.6751 50.2732 62.9357 50.5057 61.471 51.3504C60.0064 52.195 58.935 53.5834 58.4903 55.2132L53.6716 72.9751C53.2292 74.6123 53.4553 76.358 54.3002 77.8289C55.1451 79.2999 56.5398 80.3758 58.1782 80.8207L58.2432 80.8337C64.6191 81.5571 71.0556 82.5622 77.4574 83.8445C78.03 83.9572 78.5983 84.0741 79.1707 84.1954C81.2222 84.62 83.268 85.0734 85.3079 85.5557C86.2015 85.7637 87.0905 85.9803 87.984 86.2012C90.3869 86.7991 92.7913 87.4359 95.1971 88.1117C97.8732 88.8655 100.551 89.6699 103.23 90.5247C103.52 90.6114 103.811 90.7024 104.097 90.7977V89.8836C103.807 89.7926 103.516 89.7016 103.23 89.6106C100.766 88.8265 98.3055 88.0886 95.8477 87.3969C94.9282 87.1326 94.0086 86.877 93.0891 86.6301C91.4323 86.1839 89.7798 85.7564 88.1316 85.3478C87.2555 85.1268 86.3808 84.9145 85.5074 84.7109C85.4424 84.6936 85.373 84.6806 85.3079 84.6633C83.8202 84.3124 82.3296 83.9774 80.8361 83.6582C80.2637 83.5369 79.6912 83.4156 79.1186 83.2987C72.2136 81.869 65.2565 80.7557 58.3732 79.9759C56.9653 79.5842 55.7693 78.653 55.0455 77.3848C54.3217 76.1166 54.1288 74.6142 54.5088 73.2047L59.3275 55.4384C59.7129 54.0248 60.6441 52.8217 61.9167 52.0932C63.1893 51.3646 64.6993 51.1702 66.1153 51.5525L66.1803 51.5611C75.7068 52.6177 85.1596 54.2554 94.4857 56.4652C94.581 56.4911 94.6765 56.5128 94.7718 56.5345C97.6 57.2103 100.419 57.941 103.23 58.7266C103.516 58.8045 103.806 58.8868 104.097 58.9735V58.0724C103.811 57.9858 103.52 57.9035 103.23 57.8255Z" fill="#FFD894"/>
<path d="M104.096 58.523V90.3384C103.806 90.2431 103.52 90.1522 103.229 90.0612C100.666 89.2424 98.0936 88.4713 95.5128 87.7478C93.036 87.046 90.5508 86.3861 88.057 85.768C87.1722 85.5514 86.2916 85.3391 85.4068 85.1312C85.3721 84.9752 85.3373 84.8193 85.307 84.6633C85.1465 83.9182 85.0209 83.1644 84.9254 82.4063C84.882 82.116 84.8517 81.8257 84.8212 81.5312C84.3648 76.8899 85.0009 72.2063 86.6788 67.8542C88.3566 63.5021 91.0298 59.602 94.4848 56.4652C94.6106 56.3439 94.7407 56.2269 94.8709 56.1143C97.6728 56.7814 100.459 57.5035 103.229 58.2803C103.52 58.354 103.81 58.4363 104.096 58.523Z" fill="#FFD894"/>
<path d="M75.2932 71.5498L63.2311 70.1289C62.8068 70.0788 62.3767 70.1127 61.9655 70.2287C61.5543 70.3446 61.1699 70.5403 60.8344 70.8046C60.499 71.0689 60.2189 71.3967 60.0102 71.7691C59.8015 72.1415 59.6683 72.5513 59.6182 72.9752C59.568 73.399 59.602 73.8285 59.7181 74.2393C59.8342 74.65 60.0301 75.0339 60.2947 75.369C60.5593 75.7041 60.8875 75.9838 61.2603 76.1923C61.6332 76.4007 62.0435 76.5338 62.4678 76.5838L74.5297 78.0048C75.3856 78.1037 76.2458 77.8594 76.9216 77.3257C77.5975 76.792 78.0338 76.0123 78.1349 75.1577C78.236 74.303 77.9936 73.4433 77.4608 72.7669C76.9281 72.0906 76.1486 71.6529 75.2932 71.5498ZM77.2797 75.0589C77.2041 75.6859 76.8827 76.2574 76.3859 76.648C75.889 77.0387 75.2574 77.2165 74.6295 77.1427L62.5674 75.7217C61.941 75.6456 61.3704 75.3246 60.9805 74.829C60.5906 74.3335 60.4133 73.7038 60.4873 73.0779C60.5613 72.452 60.8807 71.8809 61.3755 71.4898C61.8702 71.0986 62.5 70.9193 63.1269 70.991L75.1889 72.4119C75.8168 72.4879 76.3891 72.8088 76.7808 73.3048C77.1726 73.8007 77.3519 74.4313 77.2797 75.0589Z" fill="#FFD894"/>
<path d="M104.097 65.9746V81.0635C103.818 81.2306 103.528 81.3782 103.229 81.5054C101.672 82.1996 99.9464 82.4243 98.2635 82.1519C96.5806 81.8794 95.014 81.1217 93.7565 79.9718C93.6352 79.8635 93.5136 79.7466 93.3965 79.6253C93.2794 79.5083 93.1667 79.3827 93.0583 79.257C91.7489 77.7549 90.9922 75.8514 90.9131 73.8613C90.8341 71.8712 91.4375 69.9138 92.6236 68.3128C93.8097 66.7118 95.5074 65.5632 97.4359 65.0569C99.3644 64.5505 101.408 64.7169 103.229 65.5284C103.526 65.6614 103.816 65.8104 104.097 65.9746Z" fill="white"/>
<path d="M103.23 76.8954C99.8167 77.6058 96.4264 78.3929 93.0591 79.2564C91.8013 79.577 90.5479 79.9091 89.2987 80.2528C87.8067 80.6644 86.3146 81.0904 84.8225 81.5308C82.9185 82.094 81.0174 82.6832 79.1189 83.2983C78.5681 83.4803 78.013 83.6622 77.4577 83.8442C72.1793 85.603 66.9355 87.5525 61.7784 89.6796C60.1373 90.0893 58.7246 91.13 57.8481 92.5751C56.9716 94.0202 56.7021 95.7526 57.0984 97.3952L61.4489 115.278C61.8515 116.926 62.8918 118.346 64.3415 119.228C65.7913 120.11 67.5321 120.382 69.1821 119.983L69.2429 119.962C77.7236 116.487 86.4034 113.519 95.2365 111.072C97.8736 110.34 100.538 109.65 103.23 109.001C103.521 108.932 103.807 108.863 104.097 108.798V76.7178C103.807 76.7697 103.521 76.8304 103.23 76.8954Z" fill="white"/>
<path d="M103.23 76.8954C99.8167 77.6058 96.4264 78.3929 93.0591 79.2564C91.8013 79.577 90.5479 79.9091 89.2987 80.2528C87.8067 80.6644 86.3146 81.0904 84.8225 81.5308C82.9185 82.094 81.0174 82.6832 79.1189 83.2983C78.5681 83.4803 78.013 83.6622 77.4577 83.8442C72.1793 85.603 66.9355 87.5525 61.7784 89.6796C60.1373 90.0893 58.7246 91.13 57.8481 92.5751C56.9716 94.0202 56.7021 95.7526 57.0984 97.3952L61.4489 115.278C61.8515 116.926 62.8918 118.346 64.3415 119.228C65.7913 120.11 67.5321 120.382 69.1821 119.983L69.2429 119.962C77.7236 116.487 86.4034 113.519 95.2365 111.072C97.8736 110.34 100.538 109.65 103.23 109.001C103.521 108.932 103.807 108.863 104.097 108.798V107.905C103.807 107.974 103.521 108.044 103.23 108.113C103.013 108.165 102.792 108.217 102.575 108.269C100.025 108.889 97.502 109.544 95.0065 110.236C94.9415 110.253 94.8722 110.275 94.807 110.292C86.0185 112.733 77.3823 115.692 68.9436 119.151C67.5206 119.485 66.0234 119.243 64.7775 118.48C63.5316 117.717 62.6378 116.493 62.2903 115.075L57.9443 97.1916C57.5994 95.7676 57.834 94.2651 58.5967 93.0136C59.3593 91.7621 60.5878 90.8638 62.0126 90.5158L62.0776 90.4941C67.6945 88.172 73.411 86.0666 79.171 84.1951C79.7261 84.0131 80.2814 83.8355 80.8365 83.6579C82.1985 83.229 83.5619 82.8117 84.9267 82.4059C86.3666 81.977 87.8051 81.564 89.2422 81.1669C89.3377 81.1409 89.4331 81.1149 89.5285 81.0889C90.9339 80.7034 92.3435 80.3308 93.7574 79.9712C96.8932 79.1741 100.051 78.442 103.23 77.7748C103.516 77.7142 103.807 77.6535 104.097 77.5972V76.7178C103.807 76.7697 103.521 76.8304 103.23 76.8954Z" fill="#FFD894"/>
<path d="M104.097 77.1553V108.351C103.81 108.416 103.52 108.481 103.229 108.551C100.514 109.209 97.8105 109.911 95.1184 110.656C95.01 110.535 94.9059 110.413 94.8061 110.292C91.9957 107.006 89.9307 103.151 88.753 98.9929C87.5753 94.8343 87.3128 90.4704 87.9835 86.2009C88.0053 86.0579 88.0313 85.9106 88.0574 85.7676C88.079 85.629 88.105 85.486 88.1311 85.3474C88.3989 83.9288 88.7699 82.5316 89.2413 81.1669C89.2978 81.0022 89.3541 80.8376 89.4149 80.673C90.7377 80.3091 92.0649 79.9597 93.3964 79.6246C96.6539 78.7842 99.9314 78.0203 103.229 77.3329C103.515 77.2679 103.806 77.2116 104.097 77.1553Z" fill="#FFD894"/>
<path d="M83.9421 105.414C83.6169 104.616 82.9881 103.98 82.1937 103.644C81.3993 103.309 80.5041 103.302 79.7046 103.625L68.4492 108.182C67.651 108.507 67.0145 109.135 66.6796 109.929C66.3446 110.722 66.3385 111.615 66.6625 112.413C66.9866 113.211 67.6144 113.847 68.408 114.183C69.2017 114.519 70.0963 114.527 70.8955 114.204L82.1509 109.647C82.949 109.321 83.5856 108.693 83.9213 107.9C84.257 107.107 84.2645 106.213 83.9421 105.414ZM81.8256 108.841L70.5702 113.403C69.9837 113.64 69.3271 113.634 68.7446 113.388C68.1621 113.141 67.7013 112.674 67.4633 112.089C67.2254 111.503 67.2299 110.848 67.4757 110.265C67.7215 109.683 68.1887 109.222 68.7745 108.984L80.0299 104.426C80.616 104.189 81.2726 104.193 81.8555 104.439C82.4383 104.685 82.8995 105.151 83.1376 105.737C83.3757 106.322 83.3713 106.978 83.1252 107.56C82.8792 108.142 82.4117 108.603 81.8256 108.841Z" fill="#FFD894"/>
<path d="M104.098 85.1226V102.109C103.812 102.182 103.522 102.24 103.23 102.282C101.489 102.526 99.7143 102.241 98.1373 101.464C96.5603 100.687 95.2538 99.4547 94.3875 97.9264C93.5212 96.3981 93.1352 94.6449 93.2796 92.8945C93.4241 91.1442 94.0924 89.4778 95.1976 88.1118C95.2974 87.9862 95.4013 87.8649 95.5142 87.7479C95.6182 87.6266 95.7311 87.5097 95.8482 87.397C96.8072 86.4496 97.9724 85.7361 99.2528 85.3123C100.533 84.8885 101.894 84.7658 103.23 84.9537C103.522 84.9928 103.812 85.0492 104.098 85.1226Z" fill="white"/>
<path d="M103.229 55.5686V98.8081C103.52 98.7128 103.811 98.6218 104.097 98.5351V55.9628C103.806 55.8285 103.52 55.6986 103.229 55.5686ZM103.229 55.5686V98.8081C103.52 98.7128 103.811 98.6218 104.097 98.5351V55.9628C103.806 55.8285 103.52 55.6986 103.229 55.5686ZM103.229 55.5686V98.8081C103.52 98.7128 103.811 98.6218 104.097 98.5351V55.9628C103.806 55.8285 103.52 55.6986 103.229 55.5686ZM103.229 58.7268V108.551C103.52 108.482 103.811 108.417 104.097 108.352V58.9737C103.806 58.887 103.516 58.8048 103.229 58.7268ZM103.229 58.7268V108.551C103.52 108.482 103.811 108.417 104.097 108.352V58.9737C103.806 58.887 103.516 58.8048 103.229 58.7268ZM103.229 58.7268V108.551C103.52 108.482 103.811 108.417 104.097 108.352V58.9737C103.806 58.887 103.516 58.8048 103.229 58.7268ZM103.229 58.7268V108.551C103.52 108.482 103.811 108.417 104.097 108.352V58.9737C103.806 58.887 103.516 58.8048 103.229 58.7268ZM103.229 58.7268V109.002C103.52 108.932 103.806 108.863 104.097 108.798V58.9737C103.806 58.887 103.516 58.8048 103.229 58.7268ZM292.445 17.7617H112.234C109.847 17.7657 107.559 18.7145 105.871 20.4002C104.183 22.086 103.233 24.3713 103.229 26.7553V160.399C103.234 162.782 104.184 165.067 105.872 166.752C107.559 168.437 109.847 169.385 112.234 169.388H292.445C294.831 169.385 297.118 168.437 298.805 166.752C300.493 165.067 301.442 162.782 301.445 160.399V26.7553C301.443 24.3714 300.494 22.0857 298.807 20.3996C297.119 18.7135 294.831 17.7649 292.445 17.7617ZM300.577 160.399C300.575 162.552 299.717 164.617 298.193 166.14C296.668 167.663 294.601 168.519 292.445 168.521H112.234C110.077 168.519 108.009 167.663 106.484 166.14C104.959 164.618 104.1 162.553 104.097 160.399V26.7553C104.1 24.6008 104.959 22.5355 106.484 21.0121C108.009 19.4887 110.077 18.6314 112.234 18.6282H292.445C294.601 18.6306 296.669 19.4878 298.194 21.0116C299.719 22.5353 300.576 24.601 300.577 26.7553V160.399ZM103.229 58.7268V108.114C103.52 108.044 103.806 107.975 104.097 107.906V58.9737C103.806 58.887 103.516 58.8048 103.229 58.7268ZM103.229 58.7268V108.551C103.52 108.482 103.811 108.417 104.097 108.352V58.9737C103.806 58.887 103.516 58.8048 103.229 58.7268ZM103.229 58.7268V108.551C103.52 108.482 103.811 108.417 104.097 108.352V58.9737C103.806 58.887 103.516 58.8048 103.229 58.7268ZM103.229 58.7268V108.551C103.52 108.482 103.811 108.417 104.097 108.352V58.9737C103.806 58.887 103.516 58.8048 103.229 58.7268ZM103.229 55.5686V98.8081C103.52 98.7128 103.811 98.6218 104.097 98.5351V55.9628C103.806 55.8285 103.52 55.6986 103.229 55.5686ZM103.229 55.5686V98.8081C103.52 98.7128 103.811 98.6218 104.097 98.5351V55.9628C103.806 55.8285 103.52 55.6986 103.229 55.5686Z" fill="#C9C9C9"/>
<path d="M64.5956 101.318C64.4256 100.922 64.1707 100.568 63.849 100.281C63.5272 99.9943 63.1463 99.7813 62.7332 99.6573C62.3201 99.5332 61.8848 99.5012 61.4579 99.5633C61.031 99.6255 60.623 99.7804 60.2625 100.017L51.9476 93.6357L51.5547 99.0642L59.511 104.292C59.9492 104.87 60.5847 105.268 61.297 105.41C62.0093 105.552 62.7489 105.427 63.3757 105.061C64.0024 104.694 64.4728 104.111 64.6977 103.421C64.9225 102.731 64.8862 101.983 64.5956 101.318Z" fill="#FFB6B6"/>
<path d="M31.0894 62.8062L28.3533 61.5146C28.3533 61.5146 23.9454 62.753 26.0869 68.5748L39.0464 92.6893L54.8684 101.942L59.8009 97.5759L43.9675 85.0628L31.0894 62.8062Z" fill="#FFD894"/>
</svg>
