<svg width="287" height="201" viewBox="0 0 287 201" fill="none" xmlns="http://www.w3.org/2000/svg">
<g clip-path="url(#clip0_1486_22980)">
<path d="M0 199.549C0 199.807 0.207497 200.015 0.465888 200.015H285.985C286.243 200.015 286.451 199.807 286.451 199.549C286.451 199.291 286.243 199.083 285.985 199.083H0.465888C0.207497 199.083 0 199.291 0 199.549Z" fill="#3F3D58"/>
<path d="M172.5 30.9761L182.526 34.2726V19.8379H173.428L172.5 30.9761Z" fill="#F8A8AB"/>
<path d="M181.285 23.8309C186.803 23.8309 191.276 19.3577 191.276 13.8398C191.276 8.32182 186.803 3.84863 181.285 3.84863C175.767 3.84863 171.294 8.32182 171.294 13.8398C171.294 19.3577 175.767 23.8309 181.285 23.8309Z" fill="#F8A8AB"/>
<path d="M178.74 14.6228L180.118 16.2945L182.608 11.9332C182.608 11.9332 185.787 12.0976 185.787 9.73688C185.787 7.37611 188.704 7.30956 188.704 7.30956C188.704 7.30956 192.834 0.0980761 184.28 1.99686C184.28 1.99686 178.345 -2.06693 175.397 1.4057C175.397 1.4057 166.349 5.96279 168.937 13.8946L173.24 22.0731L174.215 20.2213C174.215 20.2213 173.623 12.45 178.74 14.615V14.6228Z" fill="#2F2E43"/>
<path d="M177.691 180.788H169.493V192.42H177.691V180.788Z" fill="#F8A8AB"/>
<path d="M176.784 199.083C175.382 199.208 168.366 199.764 168.014 198.155C167.693 196.679 168.167 195.136 168.233 194.925C168.906 188.215 169.157 188.14 169.31 188.097C169.549 188.027 170.245 188.359 171.377 189.088L171.447 189.135L171.463 189.217C171.483 189.322 171.984 191.785 174.36 191.405C175.989 191.147 176.517 190.787 176.686 190.611C176.549 190.548 176.376 190.438 176.255 190.25C176.079 189.976 176.048 189.624 176.165 189.201C176.47 188.085 177.386 186.437 177.426 186.371L177.531 186.183L186.849 192.47L192.604 194.114C193.039 194.24 193.387 194.549 193.563 194.964C193.806 195.543 193.657 196.217 193.188 196.64C192.142 197.579 190.067 199.188 187.887 199.388C187.307 199.443 186.54 199.462 185.678 199.462C182.081 199.462 176.827 199.09 176.787 199.083H176.784Z" fill="#2F2E43"/>
<path d="M188.16 80.5083L166.655 79.4082C166.655 79.4082 163.358 91.905 167.524 104.926L168.025 183.34H180.177L191.633 102.452L188.16 80.5083Z" fill="#2F2E43"/>
<path d="M184.535 28.1996L172.731 21.9355C172.731 21.9355 160.011 40.5241 161.769 50.5936C163.531 60.663 166.655 79.4082 166.655 79.4082L192.694 80.5083L188.149 43.5935L184.535 28.1996Z" fill="#E2E3E4"/>
<path d="M183.525 180.788H175.327V192.42H183.525V180.788Z" fill="#F8A8AB"/>
<path d="M182.617 199.083C181.215 199.208 174.199 199.764 173.847 198.155C173.526 196.679 174 195.136 174.066 194.925C174.739 188.215 174.99 188.14 175.143 188.097C175.382 188.027 176.078 188.359 177.21 189.088L177.28 189.135L177.296 189.217C177.316 189.322 177.817 191.785 180.193 191.405C181.822 191.147 182.35 190.787 182.519 190.611C182.382 190.548 182.209 190.438 182.088 190.25C181.912 189.976 181.881 189.624 181.998 189.201C182.303 188.085 183.219 186.437 183.259 186.371L183.364 186.183L192.682 192.47L198.437 194.114C198.872 194.24 199.22 194.549 199.396 194.964C199.639 195.543 199.49 196.217 199.021 196.64C197.975 197.579 195.9 199.188 193.72 199.388C193.14 199.443 192.373 199.462 191.511 199.462C187.914 199.462 182.66 199.09 182.62 199.083H182.617Z" fill="#2F2E43"/>
<path d="M192.694 80.5083L166.655 79.4082C166.655 79.4082 163.358 91.905 167.524 104.926L172.559 183.34H184.711L196.166 102.452L192.694 80.5083Z" fill="#2F2E43"/>
<path d="M189.977 131.725C188.156 131.725 186.171 131.279 184.21 130.84C182.757 130.515 181.477 130.433 180.451 130.371C178.893 130.273 177.66 130.194 176.975 129.282C176.297 128.382 176.297 126.851 176.975 123.832C177.875 119.823 179.88 113.418 182.331 108.149C185.498 101.352 188.54 98.2243 191.378 98.8624C195.18 99.7159 196.695 106.062 197.262 109.766C198.053 114.938 197.983 121.084 197.09 125.062C195.908 130.327 193.195 131.721 189.973 131.721H189.977V131.725ZM190.67 99.9625C188.583 99.9625 186.022 103.008 183.399 108.646C180.984 113.833 179.011 120.141 178.122 124.091C177.554 126.628 177.492 128.01 177.914 128.577C178.275 129.055 179.218 129.118 180.522 129.196C181.591 129.263 182.922 129.345 184.464 129.693C190.595 131.067 194.428 131.569 195.943 124.807C197.568 117.564 196.331 101.18 191.12 100.01C190.971 99.9743 190.818 99.9586 190.666 99.9586H190.67V99.9625Z" fill="#DFDFE0"/>
<path d="M214.77 180.409L156.378 180.792L147.307 176.619L152.592 122.705L157.909 122.975L212.613 125.759L214.77 180.409Z" fill="#7BD3FC"/>
<path opacity="0.2" d="M156.378 180.792L147.307 176.619L152.592 122.705L157.909 122.975L156.378 180.792Z" fill="#272223"/>
<path d="M190.858 121.781C189.773 121.781 188.587 121.514 187.421 121.252C186.555 121.056 185.792 121.009 185.177 120.97C184.249 120.912 183.513 120.865 183.106 120.32C182.703 119.784 182.703 118.872 183.106 117.071C183.643 114.679 184.837 110.862 186.301 107.722C188.188 103.67 190.004 101.806 191.696 102.186C193.963 102.695 194.867 106.477 195.204 108.689C195.673 111.774 195.634 115.438 195.102 117.807C194.397 120.947 192.78 121.777 190.858 121.777V121.781ZM191.273 102.844C190.028 102.844 188.501 104.66 186.939 108.023C185.498 111.116 184.32 114.875 183.795 117.231C183.455 118.743 183.419 119.569 183.674 119.905C183.889 120.191 184.449 120.226 185.228 120.273C185.866 120.313 186.657 120.363 187.577 120.571C191.23 121.389 193.516 121.687 194.421 117.658C195.388 113.34 194.652 103.572 191.547 102.875C191.457 102.855 191.367 102.844 191.277 102.844H191.273Z" fill="#DFDFE0"/>
<path d="M205.637 150.811L170.825 151.038L165.414 148.552L168.566 116.405L171.737 116.566L204.353 118.226L205.637 150.811Z" fill="#E2E3E4"/>
<path opacity="0.2" d="M170.825 151.038L165.414 148.552L168.566 116.405L171.737 116.566L170.825 151.038Z" fill="#272223"/>
<path d="M192.893 100.084C193.477 102.95 192.408 105.569 190.513 105.933C188.618 106.297 186.61 104.265 186.03 101.399C185.784 100.256 185.823 99.0739 186.144 97.9464L183.838 85.7668L189.797 84.8232L191.437 96.9285C192.177 97.8525 192.674 98.933 192.893 100.084Z" fill="#F8A8AB"/>
<path d="M169.521 27.9727C169.521 27.9727 178.235 26.8687 179.277 29.4722C180.318 32.0757 192.557 94.0467 192.557 94.0467H184.484L169.521 27.9727Z" fill="#E2E3E4"/>
<path d="M108.971 41.2366L100.217 44.1142V31.5156H108.16L108.971 41.2366Z" fill="#F8A8AB"/>
<path d="M101.302 35.004C106.119 35.004 110.024 31.0987 110.024 26.2813C110.024 21.4639 106.119 17.5586 101.302 17.5586C96.4844 17.5586 92.5791 21.4639 92.5791 26.2813C92.5791 31.0987 96.4844 35.004 101.302 35.004Z" fill="#F8A8AB"/>
<path d="M103.697 25.4159C102.237 25.3729 101.278 23.8969 100.71 22.5501C100.143 21.2034 99.5592 19.6569 98.2046 19.101C97.0967 18.6468 95.1431 21.7201 94.27 20.9019C93.3578 20.0484 94.2465 15.6675 95.2135 14.8806C96.1806 14.0937 97.5038 13.941 98.7488 13.8823C101.787 13.7413 104.845 13.988 107.824 14.6105C109.668 14.9941 111.563 15.5736 112.894 16.9047C114.577 18.596 115.008 21.1446 115.129 23.5289C115.255 25.968 115.114 28.5206 113.927 30.6542C112.741 32.7879 110.259 34.3618 107.879 33.8176C107.64 32.5256 107.883 31.1984 107.977 29.883C108.067 28.5714 107.973 27.1542 107.17 26.1089C106.367 25.0636 104.657 24.6486 103.725 25.5765" fill="#2F2E43"/>
<path d="M114.428 28.4388C115.301 27.8006 116.347 27.2643 117.419 27.3974C118.578 27.5383 119.561 28.4936 119.859 29.625C120.156 30.7565 119.823 32.0015 119.103 32.9254C118.387 33.8494 117.318 34.4601 116.19 34.7655C115.536 34.9417 114.82 35.016 114.197 34.7498C113.281 34.3544 112.784 33.1838 113.144 32.252" fill="#2F2E43"/>
<path d="M106.082 181.435H97.8838V193.066H106.082V181.435Z" fill="#F8A8AB"/>
<path d="M89.8964 200.105C89.0351 200.105 88.2678 200.085 87.6883 200.031C85.5116 199.831 83.4327 198.222 82.3874 197.282C81.9176 196.859 81.7688 196.186 82.0115 195.607C82.1877 195.192 82.5362 194.878 82.9707 194.757L88.7258 193.113L98.0436 186.825L98.1493 187.013C98.1884 187.084 99.1046 188.732 99.4099 189.844C99.5274 190.267 99.4961 190.619 99.3199 190.893C99.1985 191.081 99.0263 191.19 98.8892 191.253C99.0576 191.429 99.5861 191.789 101.215 192.048C103.591 192.424 104.092 189.961 104.112 189.859L104.128 189.777L104.198 189.73C105.329 189.002 106.026 188.669 106.265 188.74C106.414 188.783 106.664 188.861 107.342 195.567C107.408 195.779 107.882 197.321 107.561 198.797C107.213 200.403 100.197 199.85 98.7914 199.725C98.7522 199.729 93.4982 200.105 89.9003 200.105H89.8964Z" fill="#2F2E43"/>
<path d="M129.425 172.288L122.469 176.626L128.624 186.495L135.58 182.157L129.425 172.288Z" fill="#F8A8AB"/>
<path d="M120.183 198.511C119.22 198.511 118.335 198.394 117.705 198.284C117.087 198.175 116.601 197.681 116.499 197.063C116.429 196.616 116.558 196.166 116.863 195.833L120.876 191.394L125.457 181.129L125.645 181.23C125.715 181.27 127.363 182.182 128.213 182.965C128.538 183.262 128.698 183.579 128.691 183.904C128.687 184.131 128.601 184.312 128.514 184.441C128.749 184.503 129.388 184.527 130.907 183.885C133.122 182.949 132.245 180.592 132.206 180.494L132.175 180.416L132.21 180.342C132.786 179.124 133.197 178.474 133.44 178.408C133.592 178.365 133.843 178.298 137.965 183.634C138.134 183.775 139.351 184.836 139.86 186.257C140.412 187.804 134.168 191.049 132.911 191.684C132.872 191.715 126.338 196.464 123.652 197.814C122.587 198.351 121.326 198.515 120.179 198.515L120.183 198.511Z" fill="#2F2E43"/>
<path d="M112.119 84.165H89.1648L87.082 105.518L96.1962 184.413H107.914L103.228 138.846L122.235 179.985L132.649 172.696L117.807 134.289C117.807 134.289 123.108 100.831 118.943 92.4962C114.777 84.1611 112.119 84.165 112.119 84.165Z" fill="#2F2E43"/>
<path d="M123.535 85.465H87.082L98.0167 38.3359H113.9L123.535 85.465Z" fill="#7BD3FC"/>
<path d="M78.0265 37.4079C77.4432 34.5421 78.512 31.9229 80.4069 31.5588C82.3017 31.1947 84.3102 33.2266 84.8896 36.0924C85.1362 37.2356 85.0971 38.4179 84.776 39.5455L87.082 51.7251L81.1233 52.6686L79.4829 40.5634C78.743 39.6394 78.2458 38.5589 78.0265 37.4079Z" fill="#F8A8AB"/>
<path d="M113.513 38.3359H99.5047L90.0617 57.222L86.499 43.0692L78.6729 43.8992C78.6729 43.8992 80.5247 71.551 88.617 70.6153C96.7094 69.6797 115.584 44.7683 113.509 38.332H113.513V38.3359Z" fill="#7BD3FC"/>
<path d="M126.742 127.915C125.657 127.915 124.471 127.649 123.304 127.387C122.439 127.191 121.676 127.144 121.061 127.105C120.133 127.046 119.397 126.999 118.99 126.455C118.587 125.919 118.587 125.007 118.99 123.206C119.526 120.814 120.72 116.996 122.185 113.857C124.072 109.805 125.888 107.941 127.58 108.321C129.846 108.83 130.751 112.612 131.087 114.824C131.557 117.909 131.518 121.573 130.986 123.942C130.281 127.082 128.664 127.912 126.742 127.912V127.915ZM127.157 108.978C125.912 108.978 124.385 110.795 122.823 114.158C121.382 117.251 120.204 121.009 119.679 123.366C119.338 124.877 119.303 125.703 119.558 126.04C119.773 126.326 120.333 126.361 121.112 126.408C121.75 126.447 122.541 126.498 123.461 126.706C127.114 127.524 129.4 127.821 130.304 123.793C131.271 119.475 130.535 109.707 127.431 109.01C127.341 108.99 127.251 108.978 127.161 108.978H127.157Z" fill="#DFDFE0"/>
<path d="M141.525 156.941L106.712 157.168L101.302 154.682L104.453 122.536L107.625 122.697L140.241 124.357L141.525 156.941Z" fill="#E2E3E4"/>
<path opacity="0.2" d="M106.712 157.168L101.302 154.682L104.453 122.536L107.625 122.697L106.712 157.168Z" fill="#272223"/>
<path d="M129.153 110.157C129.736 113.023 128.668 115.642 126.773 116.006C124.878 116.37 122.869 114.339 122.29 111.473C122.043 110.33 122.083 109.147 122.404 108.02L120.098 95.84L126.056 94.8965L127.697 107.002C128.437 107.926 128.934 109.006 129.153 110.157Z" fill="#F8A8AB"/>
<path d="M105.525 38.3362C105.525 38.3362 113.485 37.9995 113.9 38.3362C116.072 40.1097 128.816 104.124 128.816 104.124H120.743L105.525 38.3362Z" fill="#7BD3FC"/>
</g>
<defs>
<clipPath id="clip0_1486_22980">
<rect width="286.451" height="200.105" fill="white"/>
</clipPath>
</defs>
</svg>
