<svg width="346" height="199" viewBox="0 0 346 199" fill="none" xmlns="http://www.w3.org/2000/svg">
<path d="M162.228 49.6459V118.347C162.228 135.238 148.518 148.948 131.627 148.948H63.1533L47.0196 172.201L42.6264 178.564V148.948H36.0366C19.9786 148.948 6.64747 136.526 5.51129 120.543C5.43555 119.786 5.43555 119.104 5.43555 118.347V49.6459C5.43555 32.7548 19.1454 19.0449 35.9608 19.0449C35.9608 19.0449 35.9608 19.0449 36.0366 19.0449H131.551C148.518 19.0449 162.228 32.7548 162.228 49.6459Z" fill="white"/>
<path d="M131.627 19.0448C148.518 19.0448 162.228 32.7547 162.228 49.6458V118.347C162.228 135.238 148.518 148.948 131.627 148.948H63.1532L47.0195 172.201L42.6263 178.564V148.948H36.0364C19.9785 148.948 6.64735 136.525 5.51118 120.543C5.43543 119.786 5.43543 119.104 5.43543 118.347V49.6458C5.43543 32.7547 19.1453 19.0448 35.9607 19.0448C35.9607 19.0448 35.9607 19.0448 36.0364 19.0448H131.627ZM131.627 17.9844H36.0364C18.5393 17.9844 4.375 32.1487 4.375 49.6458V118.347C4.375 119.104 4.375 119.862 4.45075 120.619C5.66267 137.131 19.4483 149.932 36.0364 149.932H41.5658V178.488C41.5658 178.943 41.8688 179.321 42.3233 179.473C42.399 179.473 42.5505 179.549 42.6263 179.549C42.9293 179.549 43.308 179.397 43.4595 179.094L47.8527 172.732L63.6834 149.932H131.551C149.048 149.932 163.212 135.768 163.212 118.271V49.6458C163.212 32.1487 149.048 17.9844 131.627 17.9844Z" fill="#231F20"/>
<path d="M345.001 67.5209V136.222C345.001 152.355 332.428 165.762 316.37 166.747V196.439L314.552 193.788L297.206 168.792L295.843 166.823H218.81C201.919 166.823 188.209 153.113 188.209 136.222V67.5209C188.209 50.6298 201.919 36.9199 218.81 36.9199H314.325C331.291 36.9199 345.001 50.6298 345.001 67.5209Z" fill="white"/>
<path d="M314.4 36.9202C331.291 36.9202 345.001 50.6301 345.001 67.5213V136.222C345.001 152.356 332.428 165.763 316.37 166.747V196.439L314.552 193.788L297.206 168.792L295.843 166.823H218.81C201.919 166.823 188.209 153.113 188.209 136.222V67.5213C188.209 50.6301 201.919 36.9202 218.81 36.9202H314.4ZM314.4 35.9355H218.81C201.313 35.9355 187.224 50.0999 187.148 67.597V136.222C187.148 153.719 201.313 167.808 218.81 167.883H295.237L296.297 169.398L313.643 194.394L315.461 197.045C315.688 197.348 315.991 197.5 316.294 197.5C316.37 197.5 316.521 197.5 316.597 197.424C317.051 197.273 317.354 196.894 317.354 196.439V167.732C333.564 166.141 345.986 152.507 345.986 136.222V67.5213C345.986 50.0999 331.822 35.9355 314.4 35.9355Z" fill="#231F20"/>
<path d="M19.1452 54.4186L19.9784 42.4508C19.9784 42.4508 24.1444 30.7103 23.6142 29.1197C23.084 27.529 19.4482 28.741 17.6303 35.6338C17.6303 35.6338 14.6763 20.0303 13.2371 19.7273C11.798 19.4243 10.4346 20.409 10.586 22.6814C10.8133 24.8022 11.192 26.9231 11.6465 28.9682C11.6465 28.9682 9.60136 19.5001 7.78347 20.3333C5.96559 21.1665 7.78347 30.1801 7.78347 30.1801C7.78347 30.1801 5.88985 21.3179 4.45069 22.3784C3.01153 23.4388 5.51112 31.8465 5.51112 31.8465C5.51112 31.8465 1.34514 21.0907 0.436201 24.0448C-0.47274 26.9988 3.92047 37.6031 4.07196 41.4661C4.22345 45.3291 4.75367 61.9173 4.75367 61.9173L19.1452 54.4186Z" fill="white"/>
<path d="M4.90535 62.5993C4.8296 62.5993 4.75386 62.5993 4.67811 62.5236C4.52662 62.4479 4.45088 62.2964 4.45088 62.0691C4.45088 61.9176 3.92066 45.4052 3.76917 41.618C3.69343 40.0273 2.86023 37.2247 2.02703 34.2707C0.739367 29.8775 -0.39681 25.7872 0.133406 23.9693C0.360641 23.2119 0.815112 23.1361 1.04235 23.1361C1.87554 23.1361 2.86023 24.5753 3.84492 26.5447C3.54194 24.4996 3.54193 22.6817 4.29939 22.0757C4.52662 21.8485 4.90535 21.8485 5.13258 21.9242C5.6628 22.1515 6.19301 22.9089 6.64748 23.9693C6.57174 22 6.79897 20.3336 7.70792 19.8791C8.0109 19.7276 8.38962 19.7276 8.61686 19.8791C9.37431 20.4093 9.90452 21.1668 10.2075 22C10.2075 21.091 10.5862 20.1821 11.2679 19.5761C11.8739 19.0459 12.7071 18.8944 13.5403 19.0459C14.828 19.3489 16.5701 26.6204 17.9335 33.3617C19.2969 29.6502 21.342 27.9081 22.7812 27.9081C23.4629 27.8323 24.0689 28.2868 24.2203 28.8928C24.7506 30.5592 21.342 40.3303 20.5846 42.4511L19.5999 54.4189C19.5999 54.5704 19.5242 54.7219 19.3727 54.8733L5.20833 62.5993C5.13258 62.5993 5.05684 62.5993 4.90535 62.5993ZM1.11809 24.1966V24.2723C0.663622 25.7872 1.87554 30.1804 3.01172 33.9677C3.92066 36.9975 4.67811 39.8758 4.8296 41.5422C4.98109 44.875 5.43556 57.7517 5.51131 61.1602L18.691 53.9644L19.5242 42.3754C19.5242 42.2997 19.5242 42.2997 19.5242 42.2239C21.5693 36.543 23.4629 30.1047 23.1599 29.2715C23.1599 29.1958 23.0842 28.9685 22.7054 29.0443C21.645 29.0443 19.4484 30.9379 18.1607 35.7856C18.085 36.0128 17.8578 36.1643 17.6305 36.1643C17.4033 36.1643 17.1761 36.0128 17.1003 35.7098C15.7369 28.5898 13.8433 20.788 13.0101 20.1821C12.5556 20.1063 12.1011 20.1821 11.7982 20.4851C11.2679 21.091 10.965 21.8485 11.1164 22.6059C11.2679 24.8025 12.1769 28.817 12.1769 28.817C12.2526 29.12 12.0254 29.3472 11.7982 29.423C11.5709 29.4987 11.2679 29.2715 11.1922 29.0443C10.2832 24.8025 8.76835 20.8638 8.08664 20.7881C7.25344 21.2425 7.55643 25.9387 8.38962 30.1047C8.46537 30.4077 8.23813 30.6349 7.93515 30.7107C7.63217 30.7864 7.40493 30.5592 7.32919 30.3319C6.49599 26.6204 5.35982 23.3634 4.75386 22.9089C4.22364 23.5149 4.8296 27.6051 6.04152 31.7711C6.11727 32.0741 5.96578 32.3013 5.73854 32.377C5.51131 32.4528 5.20833 32.3013 5.05684 32.0741C3.76917 28.6655 1.95129 24.8025 1.11809 24.1966Z" fill="#231F20"/>
<path d="M163.137 96.2302C163.137 96.2302 169.121 92.2915 170.257 89.7919C171.393 87.2923 171.393 82.4446 172.605 80.0965C173.817 77.7484 175.862 81.157 174.574 87.8983C174.574 87.8983 183.285 73.5067 184.194 75.2488C185.103 76.991 184.194 77.2182 181.921 81.9144C181.921 81.9144 183.664 76.9152 185.633 78.0514C187.602 79.1876 182.679 85.3987 182.679 85.3987C182.679 85.3987 186.542 79.8693 187.602 81.9144C188.663 83.9595 183.664 89.1102 183.664 89.1102C183.664 89.1102 188.966 82.5204 189.269 84.9442C189.572 87.3681 183.209 95.5485 170.257 105.926" fill="white"/>
<path d="M170.256 106.38C170.105 106.38 169.953 106.304 169.878 106.228C169.726 106.001 169.726 105.774 169.953 105.622C183.209 95.0178 189.041 87.0645 188.814 85.0952C188.814 85.0194 188.814 85.0194 188.814 84.9437C188.511 84.9437 187.375 85.8526 186.087 87.216C185.481 88.0492 184.799 88.8067 184.042 89.5641C183.815 89.7156 183.587 89.7156 183.36 89.4884C183.209 89.3369 183.209 89.1096 183.36 88.9582C183.815 88.3522 184.572 87.4432 185.405 86.6101C186.693 84.9437 187.678 83.1258 187.223 82.2926C187.147 82.0653 186.996 82.0653 186.92 82.0653C186.163 81.9896 184.875 83.353 183.815 84.7164C183.436 85.2466 183.057 85.7011 182.981 85.8526C182.83 86.0798 182.527 86.0798 182.376 85.9284C182.148 85.7769 182.148 85.4739 182.3 85.3224C182.451 85.0952 182.754 84.7164 183.133 84.1862C184.421 82.3683 185.784 80.0202 185.557 78.9598C185.557 78.8083 185.481 78.7326 185.33 78.6568C185.178 78.5053 184.951 78.5053 184.724 78.5811C184.345 78.8083 183.966 79.1113 183.739 79.49C183.36 80.2475 182.906 81.0807 182.3 82.2926C182.224 82.5198 181.921 82.5956 181.694 82.5198C181.467 82.4441 181.391 82.1411 181.467 81.9139C181.845 80.8534 182.376 79.8687 182.981 78.9598L183.133 78.7326C184.042 77.0662 184.269 76.6874 183.815 75.7785C182.603 76.3845 178.437 82.5198 174.952 88.3522C174.801 88.5794 174.574 88.6552 174.422 88.5037C174.195 88.4279 174.119 88.2007 174.119 87.9735C175.104 82.8985 174.044 80.2475 173.438 80.0202C173.286 79.9445 173.135 80.2475 172.983 80.4747C172.377 81.9896 171.998 83.5802 171.847 85.2466C171.695 86.913 171.241 88.5794 170.711 90.1701C169.499 92.7454 163.666 96.6084 163.363 96.8356C163.136 96.9871 162.909 96.9114 162.758 96.6842C162.606 96.4569 162.682 96.1539 162.909 96.0782C162.985 96.0782 168.817 92.1394 169.878 89.8671C170.408 88.3522 170.787 86.8373 170.938 85.2466C171.089 83.5045 171.544 81.8381 172.15 80.2475C172.756 79.1113 173.438 79.2628 173.741 79.3385C174.877 79.7172 175.71 82.2926 175.331 86.0798C178.058 81.6866 182.527 74.9453 183.966 74.9453C184.193 74.9453 184.421 75.0968 184.572 75.324C185.027 76.0815 185.102 76.9904 184.724 77.7479C185.102 77.6721 185.481 77.7479 185.86 77.9751C186.239 78.2024 186.466 78.5053 186.541 78.9598C186.617 79.9445 186.314 80.8534 185.86 81.6866C186.239 81.4594 186.617 81.3079 187.072 81.3079C187.526 81.3079 187.905 81.6109 188.132 81.9896C188.435 82.8985 188.359 83.8832 187.905 84.6407C188.284 84.3377 188.738 84.1862 189.193 84.262C189.571 84.4134 189.874 84.7922 189.874 85.1709C190.177 87.8977 183.587 96.3054 170.635 106.531C170.484 106.304 170.332 106.38 170.256 106.38Z" fill="#231F20"/>
<path d="M58.0028 14.8799C56.0335 19.5003 55.1245 24.4238 54.5186 29.4229L56.9424 25.5599C55.4275 27.908 56.1092 32.68 56.2607 35.3311C56.4879 39.3456 57.2454 43.36 58.4573 47.1473C58.836 45.1779 59.3662 43.2843 60.1994 41.4664L63.3807 49.2682C64.0624 51.2375 65.0471 53.1312 66.259 54.8733C70.6523 60.327 80.5749 60.7057 86.8617 59.418C92.0881 58.2818 101.329 53.9644 100.269 46.9958L100.723 50.0256C104.283 44.1932 105.495 37.3004 104.132 30.6349L108.752 36.846C109.358 29.5744 107.767 22.2272 104.207 15.8646C100.647 9.50199 96.6328 6.01771 90.2702 2.38195C88.4524 1.32152 85.574 0.791302 84.6651 2.76067C80.1961 -0.26913 74.1365 -0.269132 69.2888 2.15471C64.4412 4.57855 60.8054 8.89603 58.533 13.7437C58.3058 14.1982 58.1543 14.5012 58.0028 14.8799Z" fill="white"/>
<path d="M80.2724 60.6295C74.6673 60.6295 68.8349 59.1146 65.7294 55.2516C64.4417 53.5095 63.457 51.6159 62.7753 49.5707L60.1242 42.9052C59.594 44.3443 59.2153 45.7835 58.9123 47.2984C58.8366 47.6014 58.6093 47.7529 58.3063 47.7529C58.0791 47.7529 57.9276 47.6014 57.9276 47.3741C56.7157 43.5111 55.9583 39.4966 55.731 35.4064C55.731 35.0277 55.6553 34.5732 55.6553 34.043C55.5038 32.3009 55.428 30.5587 55.5038 28.8166L54.9736 29.7255C54.8221 29.9528 54.5948 30.0285 54.3676 29.9528C54.1404 29.877 53.9889 29.6498 54.0646 29.4225C54.5948 25.2566 55.428 19.8029 57.6246 14.728C57.7761 14.3493 57.9276 14.0463 58.0791 13.6676C60.5787 8.21391 64.5175 3.97219 69.0622 1.77558C74.2128 -0.724005 80.1967 -0.572515 84.5142 2.15431C84.8171 1.69984 85.2716 1.39686 85.8018 1.24537C87.3167 0.715154 89.2861 1.39686 90.498 2.07856C97.3908 5.94157 101.178 9.65307 104.662 15.7127C108.298 22.151 109.889 29.574 109.283 36.9971C109.283 37.2243 109.131 37.3758 108.904 37.4515C108.677 37.5273 108.45 37.4515 108.374 37.3L105.041 32.8311C105.723 38.9664 104.359 45.1775 101.102 50.4039C101.027 50.5554 100.799 50.7069 100.572 50.6312C100.496 50.6312 100.496 50.6312 100.421 50.5554C98.6785 55.6303 91.7857 58.9631 86.938 60.0236C84.6656 60.4023 82.469 60.6295 80.2724 60.6295ZM60.1242 41.0115C60.3515 41.0115 60.503 41.163 60.5787 41.3145L63.6843 49.1163C64.366 51.0856 65.2749 52.9035 66.4868 54.5699C70.88 59.9478 80.8784 60.0993 86.5593 58.8874C92.0887 57.6755 100.496 53.4337 99.5874 47.0712C99.5117 46.7682 99.7389 46.5409 100.042 46.4652C100.345 46.3894 100.572 46.6167 100.648 46.9197L100.875 48.4346C103.829 43.0567 104.738 36.7698 103.526 30.7102C103.45 30.4072 103.678 30.18 103.981 30.1042C104.208 30.1042 104.359 30.18 104.511 30.3315L108.298 35.4064C108.601 28.6651 107.01 21.9995 103.678 16.1672C100.345 10.259 96.6334 6.69901 89.9678 2.91176C88.8316 2.3058 87.241 1.77558 86.1048 2.15431C85.6503 2.3058 85.2716 2.60878 85.1201 2.9875C85.0444 3.13899 84.9686 3.21474 84.8171 3.29049C84.6656 3.36623 84.5142 3.29049 84.3627 3.21474C80.2724 0.412172 74.4401 0.184935 69.5166 2.60878C65.1992 4.72964 61.4119 8.74414 58.9881 13.9705C58.8366 14.2735 58.6851 14.6522 58.5336 14.9552C56.9429 18.8182 55.8825 22.9085 55.3523 27.0744L56.4885 25.2566C56.64 25.0293 57.0187 25.0293 57.2459 25.1808C57.3974 25.3323 57.4732 25.5595 57.3974 25.7868C56.1855 27.6804 56.4885 31.2404 56.7157 33.8915C56.7157 34.346 56.7914 34.8004 56.7914 35.2549C56.9429 38.5877 57.4732 41.8447 58.3821 45.026C58.6851 43.7384 59.1395 42.4507 59.6698 41.2388C59.7455 41.163 59.897 41.0115 60.1242 41.0115Z" fill="#231F20"/>
<path d="M111.327 148.948H64.9711C61.9412 116.605 57.6995 63.9622 62.0927 57.3724C63.0017 56.0847 64.2136 54.9485 65.577 54.1911C66.183 53.8123 66.8647 53.5094 67.5464 53.2821C70.8792 51.9187 75.0452 51.3128 79.2869 51.237C82.6954 51.1613 86.0282 51.3885 89.361 51.843H89.4367C92.315 52.2217 95.1176 52.8277 97.8444 53.7366C98.2232 53.8881 98.5261 54.0396 98.9049 54.1911C102.844 56.1604 109.206 124.785 111.327 148.948Z" fill="white"/>
<path d="M123.75 148.948H63.1535L59.5935 154.098L47.0955 172.201C46.4138 165.687 45.7321 159.552 45.1262 153.644C43.0053 132.965 41.6419 116.302 40.9602 102.97C40.9602 102.895 40.9602 102.743 40.9602 102.667C39.824 78.5805 41.1117 65.3251 45.2777 58.508C46.8683 55.9327 48.9892 53.8118 51.4887 52.1454C54.8973 49.9488 58.7603 48.5854 62.7748 48.0552C64.3654 47.8279 65.9561 47.6765 67.471 47.6765C68.4556 47.6765 68.9859 47.6765 68.9859 47.6765C68.9859 47.6765 72.3944 47.525 77.2421 47.4492H79.06C83.3774 47.4492 88.5281 47.525 93.3758 47.9037C95.7239 48.0552 98.072 48.3582 100.193 48.6611H100.344L101.253 48.8126C103.829 49.1914 106.404 50.0245 108.752 51.1607C109.661 51.6909 110.57 53.2816 111.479 55.5539C111.479 55.6297 111.555 55.6297 111.555 55.7054C112.388 58.0535 113.07 60.4016 113.6 62.8255C116.933 77.0656 119.659 101.531 121.553 121.907C122.007 126.982 122.462 131.829 122.765 136.222C123.068 139.707 123.295 142.888 123.522 145.615C123.598 146.675 123.674 147.887 123.75 148.948Z" fill="#7BD3FC"/>
<path d="M67.6221 58.7363L89.5124 105.926L90.1941 62.9023L67.6221 58.7363Z" fill="white"/>
<path d="M89.5127 106.455C89.2855 106.455 89.134 106.303 89.0582 106.152L67.1679 58.9625C67.0922 58.811 67.0922 58.5838 67.2437 58.4323C67.3194 58.2808 67.5466 58.2051 67.6981 58.2051L90.2702 62.2953C90.4974 62.3711 90.7246 62.5226 90.7246 62.8255L90.0429 105.924C90.0429 106.152 89.8914 106.379 89.6642 106.455H89.5127ZM68.5313 59.4927L89.0582 103.652L89.6642 63.3557L68.5313 59.4927Z" fill="#231F20"/>
<path d="M89.2855 49.1924L90.1945 62.8265C90.1945 62.8265 86.5587 70.7798 77.6965 68.2044C68.8344 65.6291 67.6224 58.6606 67.6224 58.6606C67.6224 58.6606 67.168 32.9072 67.168 32.3013C67.168 31.5438 73.0761 27.1506 73.9093 26.0902C76.1816 23.1361 77.9238 19.7276 78.9085 16.1676L78.9842 20.0306C81.4838 18.0612 83.4532 15.4101 84.5893 12.4561C85.877 15.4101 89.0583 17.0008 91.7851 18.7429C98.4507 23.0604 99.2839 34.2706 97.8447 41.5422C96.4813 48.5107 89.2855 49.1924 89.2855 49.1924Z" fill="white"/>
<path d="M81.105 69.2648C79.8931 69.2648 78.6812 69.1133 77.545 68.8103C68.4556 66.1593 67.0922 59.1907 67.0922 58.8877C67.0164 56.1609 66.6377 32.9829 66.6377 32.4527C66.6377 31.9225 67.5466 31.0135 70.7279 28.3625C71.7126 27.605 72.6216 26.7718 73.5305 25.8629C75.8029 22.9845 77.4692 19.6518 78.3782 16.0917C78.4539 15.7888 78.7569 15.6373 79.0599 15.713C79.2871 15.7888 79.4386 15.9403 79.4386 16.1675L79.5144 18.9701C81.5595 17.1522 83.1501 14.8041 84.1348 12.2287C84.2106 11.9258 84.5893 11.85 84.8165 11.9258C84.968 12.0015 85.0438 12.0773 85.1195 12.2287C86.1799 14.5768 88.528 16.0917 90.8761 17.5309L92.088 18.2884C99.2081 22.9088 99.7383 34.8008 98.3749 41.6178C97.163 47.7532 91.5578 49.2681 89.8157 49.5711L90.7246 62.7507C90.7246 62.8265 90.7246 62.9022 90.6489 62.978C90.6489 63.1295 87.7706 69.2648 81.105 69.2648ZM78.4539 19.1973C77.4692 21.7726 76.0301 24.2722 74.3637 26.4688C73.4548 27.3778 72.4701 28.2867 71.4096 29.1199C69.9705 30.2561 67.8496 32.074 67.6981 32.5284C67.6981 32.9829 68.0011 49.8741 68.1526 58.7362C68.1526 58.8877 69.4403 65.3261 77.848 67.7499C82.4684 69.2648 87.5433 67.1439 89.6642 62.7507L88.7553 49.1924C88.7553 48.8894 88.9825 48.6621 89.2097 48.6621C89.5127 48.6621 96.0268 47.9047 97.3145 41.4663C98.6021 34.8765 98.1477 23.5905 91.4821 19.1973C91.1034 18.9701 90.7246 18.6671 90.2702 18.4398C88.1493 17.0764 85.9527 15.713 84.665 13.6679C83.4531 16.319 81.6352 18.6671 79.2871 20.485C79.0599 20.6364 78.7569 20.6365 78.5297 20.4092C78.4539 20.3335 78.4539 20.182 78.4539 20.1062V19.1973Z" fill="#231F20"/>
<path d="M89.5125 55.9341C86.1039 56.1613 82.8469 54.9494 80.4231 52.5255C76.6358 48.5111 77.0903 46.3145 77.0903 46.3145C77.0903 46.3145 83.3014 50.1017 89.2852 49.1928L89.5125 55.9341Z" fill="#231F20"/>
<path d="M88.7555 56.4633C85.4985 56.4633 82.3929 55.1756 80.1206 52.9033C76.2576 48.813 76.5606 46.5407 76.6363 46.3135C76.6363 46.162 76.7878 46.0105 76.9393 45.9347C77.0908 45.859 77.2423 45.859 77.3938 45.9347C77.4695 45.9347 83.5291 49.6462 89.21 48.7373C89.3615 48.7373 89.513 48.7373 89.5887 48.8131C89.6645 48.8888 89.7402 49.0403 89.7402 49.1918L89.9674 55.9331C89.9674 56.1603 89.8159 56.3876 89.513 56.4633C89.513 56.4633 89.21 56.4633 88.7555 56.4633ZM77.6967 47.2982C77.924 48.2071 78.6057 49.8735 80.8023 52.2216C82.9989 54.3424 85.9529 55.5544 88.9828 55.4786L88.7555 49.7977C84.1351 50.3279 79.5146 48.2071 77.6967 47.2982Z" fill="#231F20"/>
<path d="M87.9215 26.9229C87.9215 26.9229 91.7845 34.9518 90.4211 36.088C89.0577 37.2242 85.9521 35.8608 85.9521 35.8608" fill="white"/>
<path d="M88.9069 37.073C87.8465 36.9972 86.786 36.77 85.8013 36.3912C85.4984 36.3155 85.3469 36.0125 85.4226 35.7853C85.4984 35.4823 85.8014 35.3308 86.0286 35.4066C86.0286 35.4066 86.1043 35.4066 86.1043 35.4823C86.8618 35.7853 89.2099 36.5427 90.1188 35.7853C90.649 35.3308 89.4371 31.2406 87.4677 27.2261C87.3163 26.9989 87.4677 26.6959 87.695 26.5444C87.9222 26.3929 88.2252 26.5444 88.3767 26.7716C89.5886 29.2712 92.2397 35.3308 90.7248 36.5427C90.2703 36.9215 89.5886 37.073 88.9069 37.073Z" fill="#231F20"/>
<path d="M83.7599 25.4197C83.894 24.2983 83.5988 23.3408 83.1003 23.2812C82.6019 23.2215 82.0891 24.0823 81.9549 25.2038C81.8207 26.3252 82.116 27.2827 82.6144 27.3424C83.1128 27.402 83.6257 26.5412 83.7599 25.4197Z" fill="#231F20"/>
<path d="M94.0831 26.3055C94.2173 25.184 93.922 24.2265 93.4236 24.1669C92.9251 24.1073 92.4123 24.968 92.2781 26.0895C92.1439 27.211 92.4392 28.1685 92.9376 28.2281C93.4361 28.2877 93.9489 27.4269 94.0831 26.3055Z" fill="#231F20"/>
<path d="M74.3635 28.9686C73.6061 27.6052 72.6214 26.3175 71.4852 25.2571C70.046 24.0452 67.8494 24.0452 66.4103 25.3329C65.5771 26.0903 64.9711 26.9992 64.6681 28.1354C63.3047 32.8316 66.0315 36.0129 70.1218 37.6793" fill="white"/>
<path d="M70.1214 38.1326C70.0457 38.1326 69.97 38.1326 69.8942 38.0569C64.9708 36.0875 62.8499 32.376 64.1376 27.907C64.4406 26.6951 65.1223 25.6347 66.0312 24.8772C67.6976 23.4381 70.1214 23.4381 71.7878 24.8772C72.9998 25.9377 74.0602 27.2253 74.8176 28.7402C74.9691 28.9675 74.8176 29.2704 74.5904 29.4219C74.3632 29.5734 74.0602 29.4219 73.9087 29.1947C73.227 27.8313 72.2423 26.6951 71.1061 25.7104C69.8185 24.65 67.9248 24.65 66.7129 25.7862C65.9555 26.4679 65.4252 27.3011 65.1223 28.3615C63.5316 33.8909 68.1521 36.3905 70.2729 37.2237C70.5002 37.2994 70.6517 37.6024 70.5759 37.9054C70.5002 38.0569 70.2729 38.1326 70.1214 38.1326Z" fill="#231F20"/>
<path d="M87.4679 44.3448C84.5896 44.3448 83.7564 41.0878 83.6807 39.4214C83.6807 39.2699 83.7564 39.1184 83.8322 39.0427C83.9079 38.9669 84.0594 38.8912 84.2109 38.9669L91.6339 40.1031C91.9369 40.1788 92.0884 40.4061 92.0126 40.7091V40.7848C91.7096 41.9967 90.2705 44.3448 87.4679 44.3448ZM84.7411 40.0273C84.8926 41.1635 85.4228 43.3601 87.4679 43.3601C88.9828 43.2844 90.3462 42.3754 90.8764 40.9363L84.7411 40.0273Z" fill="#231F20"/>
<path d="M111.479 55.4033C111.479 55.4033 133.52 101.684 137.308 102.593C143.897 104.183 167.681 90.7763 167.681 90.7763L175.559 104.638C175.559 104.638 151.169 135.92 133.823 131.451C120.947 128.119 107.843 98.7295 107.843 98.7295L111.479 55.4033Z" fill="#7BD3FC"/>
<path d="M51.4123 52.1458C51.4123 52.1458 50.1246 47.2223 22.1747 86.837C22.1747 62.3714 23.2351 50.6309 23.2351 50.6309L2.93544 53.3577C2.93544 53.3577 -5.85099 122.21 10.8887 124.558C27.6283 126.906 46.7161 94.26 46.7161 94.26L51.4123 52.1458Z" fill="#7BD3FC"/>
<path d="M9.52631 46.9202C9.22333 46.9202 8.99609 46.6929 8.99609 46.39C8.99609 40.0274 17.1008 35.4069 17.4795 35.2554C17.7068 35.1039 18.0098 35.1797 18.1613 35.4827C18.3127 35.7099 18.237 36.0129 17.934 36.1644C17.8583 36.2401 9.98078 40.7091 9.98078 46.4657C10.0565 46.6172 9.82929 46.8444 9.52631 46.9202Z" fill="#231F20"/>
<path d="M123.522 145.994C123.219 145.994 122.992 145.767 122.992 145.54C121.174 116.378 113.145 63.4321 113.069 62.9019C112.994 62.5989 113.221 62.3717 113.524 62.2959C113.827 62.2202 114.054 62.4474 114.13 62.7504C114.206 63.2806 122.159 116.302 124.052 145.54C124.052 145.691 123.825 145.919 123.522 145.994Z" fill="#231F20"/>
<path d="M26.0384 119.635C25.8869 119.635 25.7354 119.56 25.6597 119.484C25.4324 119.257 25.4324 118.954 25.6597 118.726C25.8112 118.575 41.6419 102.517 52.2462 87.368C52.3977 87.1408 52.7007 87.065 52.9279 87.2165C52.9279 87.2165 52.9279 87.2165 53.0037 87.2165C53.2309 87.368 53.3066 87.7467 53.1552 87.974C42.4751 103.199 26.6444 119.332 26.4929 119.484C26.3414 119.56 26.1899 119.635 26.0384 119.635Z" fill="#231F20"/>
<path d="M174.574 95.1694C174.498 95.1694 174.423 95.1694 174.423 95.0937C174.195 95.0179 174.12 94.715 174.195 94.4877C175.483 91.4579 174.195 88.0494 174.195 88.0494C174.12 87.8222 174.195 87.5192 174.423 87.4434C174.65 87.3677 174.953 87.4434 175.029 87.6707C175.104 87.8222 176.468 91.4579 175.029 94.7907C174.953 95.018 174.801 95.1694 174.574 95.1694Z" fill="#231F20"/>
<path d="M68.0768 105.622C67.8495 105.622 63.9865 105.092 60.9567 100.093C57.9269 95.0936 59.0631 84.7166 59.1388 84.2621C59.1388 84.0348 59.3661 83.8076 59.6691 83.8076L74.2879 84.1106C74.5151 84.1106 74.7423 84.2621 74.8181 84.5651C74.8938 84.9438 76.333 93.8817 74.8181 98.1234C73.3032 102.365 68.607 105.546 68.4555 105.698C68.304 105.622 68.2283 105.622 68.0768 105.622ZM60.1235 84.7923C59.972 86.9132 59.3661 95.3966 61.8657 99.4868C64.3653 103.577 67.2436 104.335 68.001 104.486C68.8342 103.88 72.5457 101.077 73.8334 97.5932C75.1211 94.1089 74.1364 86.8374 73.9091 85.0195L60.1235 84.7923Z" fill="#231F20"/>
<path d="M296.07 38.2834C296.07 38.2834 302.962 23.6646 313.945 34.0417C322.959 42.5252 309.174 63.2036 318.642 66.4606C318.642 66.4606 309.855 65.0214 307.507 57.8257C305.159 50.6299 305.841 48.5848 305.841 48.5848C305.841 48.5848 301.296 51.3116 296.979 48.9635C292.661 46.6154 296.07 38.2834 296.07 38.2834Z" fill="white"/>
<path d="M318.718 66.9159H318.642C318.264 66.8401 309.553 65.3252 307.205 57.978C305.614 53.206 305.387 50.5549 305.387 49.343C303.872 50.0247 300.312 51.2366 296.828 49.343C292.283 46.7677 295.464 38.4357 295.616 38.057C295.767 37.754 298.949 31.0884 304.629 29.9523C307.735 29.3463 310.992 30.5582 314.173 33.588C318.945 38.057 317.658 45.7073 316.446 52.3728C315.31 58.8112 314.401 64.4163 318.718 65.9312C318.945 66.0069 319.097 66.3099 319.021 66.5372C319.097 66.8401 318.945 66.9159 318.718 66.9159ZM305.917 48.1311C305.993 48.1311 306.144 48.1311 306.22 48.2068C306.372 48.3583 306.447 48.5098 306.372 48.7371C306.372 48.7371 305.841 50.9337 308.038 57.7507C309.477 62.0682 313.416 64.2648 316.143 65.2495C313.946 62.5227 314.779 57.5235 315.688 52.3728C316.824 45.8587 318.036 38.5115 313.643 34.3455C310.613 31.5429 307.659 30.4067 304.857 30.937C299.706 31.9216 296.676 38.1327 296.525 38.5115C296.373 38.8902 293.495 46.5405 297.282 48.5856C301.297 50.7822 305.614 48.2826 305.69 48.2068C305.766 48.1311 305.841 48.1311 305.917 48.1311Z" fill="#231F20"/>
<path d="M304.78 46.9185C304.629 48.1304 303.72 49.0394 302.584 49.3424C300.993 49.7211 298.872 48.8121 297.509 47.6002C296.297 46.464 295.312 45.0249 294.706 43.4342C293.57 40.8589 289.783 31.2393 296.6 34.0418C302.584 36.5414 305.765 42.904 304.78 46.9185Z" fill="#231F20"/>
<path d="M301.826 49.8729C300.084 49.7972 298.493 49.1154 297.205 47.9035C295.918 46.6916 294.933 45.2524 294.327 43.5861C293.494 41.7682 290.994 35.7086 292.888 33.7392C293.645 32.906 295.009 32.906 296.751 33.6635C302.811 36.163 306.219 42.7529 305.159 46.9946C304.931 48.358 303.947 49.4184 302.659 49.7214C302.432 49.8729 302.129 49.8729 301.826 49.8729ZM294.554 34.0422C294.176 34.0422 293.797 34.1179 293.57 34.4209C292.434 35.6328 293.57 39.8745 295.16 43.3588C295.766 44.8737 296.675 46.2371 297.811 47.3733C299.023 48.4337 300.993 49.3427 302.508 49.0397C303.492 48.7367 304.25 47.9035 304.401 46.9188C305.31 43.0558 302.129 36.9205 296.524 34.6481C295.842 34.2694 295.236 34.1179 294.554 34.0422Z" fill="#231F20"/>
<path d="M269.559 35.7844C269.559 35.7844 262.667 21.1656 251.683 31.5427C242.594 40.0261 256.455 60.7045 246.987 63.9616C246.987 63.9616 255.774 62.5224 258.122 55.3266C260.47 48.1309 259.788 46.01 259.788 46.01C259.788 46.01 264.333 48.7368 268.65 46.3887C272.968 44.0406 269.559 35.7844 269.559 35.7844Z" fill="white"/>
<path d="M246.987 64.4159C246.759 64.4159 246.532 64.1887 246.532 63.9614C246.532 63.7342 246.684 63.5827 246.835 63.5069C251.153 61.992 250.168 56.4627 249.108 49.9486C247.971 43.2073 246.684 35.557 251.38 31.088C254.637 28.0582 257.818 26.8463 260.924 27.4523C266.605 28.5127 269.862 35.254 269.937 35.557C270.089 35.9357 273.346 44.2677 268.726 46.843C265.317 48.7366 261.757 47.5247 260.166 46.843C260.166 48.0549 259.939 50.706 258.348 55.478C256.076 62.8252 247.365 64.3401 246.987 64.4159ZM259.409 28.2855C256.985 28.2855 254.485 29.4974 251.986 31.8455C247.593 35.9357 248.88 43.3587 249.941 49.8728C250.85 55.0992 251.683 60.0227 249.486 62.7495C252.137 61.7648 256.152 59.5682 257.591 55.2507C259.863 48.4337 259.257 46.2371 259.257 46.2371C259.182 46.0098 259.333 45.7068 259.56 45.6311C259.712 45.5553 259.863 45.6311 259.939 45.7068C259.939 45.7068 264.332 48.2822 268.347 46.0856C272.134 43.9647 269.256 36.3902 269.104 36.0115C268.953 35.6327 265.847 29.4216 260.697 28.437C260.318 28.2855 259.863 28.2855 259.409 28.2855Z" fill="#231F20"/>
<path d="M260.848 44.4947C261 45.7066 261.909 46.6156 263.045 46.9185C264.636 47.2973 266.757 46.3883 268.12 45.1764C269.332 44.0402 270.317 42.6011 270.923 41.0104C272.059 38.4351 275.846 28.8155 269.029 31.618C263.045 34.1176 259.939 40.4802 260.848 44.4947Z" fill="#231F20"/>
<path d="M263.802 47.4481C263.499 47.4481 263.197 47.4481 262.969 47.3724C261.682 47.0694 260.621 45.9332 260.47 44.5698C259.485 40.3281 262.818 33.7383 268.877 31.2387C270.695 30.4812 271.983 30.557 272.74 31.3144C274.634 33.2838 272.134 39.3434 271.301 41.1613C270.62 42.7519 269.635 44.2668 268.423 45.4787C267.135 46.6149 265.545 47.2966 263.802 47.4481ZM271.15 31.6174C270.468 31.6931 269.862 31.8446 269.256 32.0719C263.575 34.42 260.47 40.4796 261.379 44.3426C261.53 45.3273 262.212 46.1605 263.272 46.4634C264.787 46.7664 266.757 45.8575 267.968 44.797C269.105 43.6609 270.014 42.2975 270.62 40.7825C272.21 37.2983 273.346 33.0566 272.21 31.9204C271.831 31.6931 271.453 31.5416 271.15 31.6174Z" fill="#231F20"/>
<path d="M273.044 30.407C267.514 33.2095 262.742 36.921 262.212 45.1015C261.682 53.6607 261.227 64.1135 268.272 69.4914C275.316 74.7178 284.784 75.551 292.586 71.5365C300.312 67.2948 305.008 59.1143 304.781 50.3279C304.175 32.3763 285.92 23.8929 273.044 30.407Z" fill="white"/>
<path d="M282.057 74.5661C276.982 74.6418 271.983 72.9754 267.968 69.9456C260.545 64.2647 261.227 53.206 261.757 45.1012C262.287 36.4663 267.665 32.679 272.816 30.028C279.633 26.6952 287.662 27.0739 294.1 31.0126C300.917 35.0271 304.932 42.0714 305.235 50.3276C305.462 59.2656 300.614 67.6733 292.737 71.9907C289.48 73.6571 285.768 74.5661 282.057 74.5661ZM272.967 30.4067L273.195 30.7854C267.968 33.4365 263.121 36.9965 262.59 45.1012C262.136 52.9787 261.454 63.7345 268.423 69.1124C275.316 74.2631 284.556 75.0205 292.282 71.0818C299.857 66.9158 304.477 58.8868 304.25 50.3276C304.023 42.3744 300.084 35.6331 293.57 31.7701C287.359 27.9828 279.633 27.6799 273.119 30.8612L272.967 30.4067Z" fill="#231F20"/>
<path d="M217.75 84.4884C217.371 78.959 216.159 73.5811 213.962 68.5061C213.659 67.7487 212.902 66.8397 212.145 67.2185C212.599 69.5666 212.978 71.9147 213.432 74.187C209.115 71.3087 205.403 67.6729 202.449 63.4312C202.222 62.9767 201.843 62.598 201.389 62.3708C200.934 62.1436 200.328 62.295 200.101 62.7495C200.025 63.1282 200.101 63.5827 200.328 63.9614C201.616 66.2338 203.055 68.4304 204.722 70.3998C202.601 67.2185 200.328 63.9614 196.996 62.1436C197.374 65.7793 198.738 69.2636 200.934 72.2177L195.556 66.2338C195.102 65.7036 194.269 65.0976 193.663 65.5521C193.057 66.0066 193.511 66.9155 193.89 67.5215L197.601 73.0509C195.708 71.3845 193.738 69.7938 191.693 68.3546C192.072 71.7632 194.647 74.49 197.374 76.4594C200.101 78.4288 203.207 80.0194 205.479 82.5947C206.842 84.2611 207.979 86.079 208.963 87.9726" fill="white"/>
<path d="M209.039 88.5028C208.887 88.5028 208.736 88.4271 208.66 88.2756C207.751 86.382 206.615 84.6398 205.252 82.9734C203.585 81.3071 201.767 79.7921 199.722 78.5802C198.889 78.05 198.056 77.4441 197.223 76.9138C193.587 74.3385 191.617 71.4602 191.314 68.5061C191.314 68.3546 191.39 68.1274 191.542 68.0517C191.693 67.9759 191.92 67.9759 192.072 68.0517C193.208 68.8849 194.42 69.7938 195.48 70.7027L193.587 67.8244C192.829 66.764 192.829 65.7793 193.511 65.2491C194.193 64.7189 195.102 65.0219 196.011 65.9308L198.207 68.4304C197.298 66.461 196.768 64.3402 196.541 62.2193C196.541 62.0678 196.617 61.9163 196.768 61.7648C196.92 61.6891 197.071 61.6891 197.223 61.7648C198.056 62.2193 198.889 62.8252 199.646 63.4312C199.571 63.1282 199.571 62.901 199.722 62.598C199.874 62.295 200.101 62.0678 200.404 61.9163C200.783 61.7648 201.237 61.7648 201.616 61.9921C202.146 62.295 202.525 62.6738 202.828 63.204C205.555 67.067 208.963 70.4755 212.826 73.2023C212.447 71.233 212.069 69.2636 211.766 67.2942C211.766 67.067 211.841 66.9155 211.993 66.8397C212.296 66.6882 212.675 66.6125 212.978 66.764C213.659 67.067 214.114 67.6729 214.417 68.3546C216.613 73.5053 217.901 78.8832 218.204 84.4883C218.204 84.7156 218.052 84.9428 217.749 84.9428C217.522 84.9428 217.295 84.7913 217.295 84.4883C216.992 79.0347 215.704 73.7325 213.584 68.6576C213.432 68.2032 213.129 67.9002 212.75 67.5972C213.129 69.7938 213.508 71.9147 213.962 74.1113C214.038 74.3385 213.811 74.5657 213.584 74.6415C213.432 74.6415 213.356 74.6415 213.281 74.5657C208.887 71.6874 205.1 67.9759 202.07 63.7342C201.843 63.3555 201.54 63.0525 201.161 62.8253C201.01 62.7495 200.783 62.7495 200.631 62.8253C200.555 62.8253 200.48 62.901 200.48 62.9767C200.404 63.1282 200.555 63.507 200.707 63.7342C201.086 64.4916 201.54 65.1734 201.994 65.8551C203.131 67.2185 204.191 68.7334 205.1 70.0968C205.252 70.324 205.176 70.627 205.024 70.7785C204.797 70.93 204.494 70.8542 204.343 70.7027C203.206 69.3393 202.146 67.9002 201.237 66.461C200.177 65.1733 198.889 63.9614 197.526 63.0525C197.98 66.3095 199.343 69.3393 201.313 71.9904C201.464 72.2176 201.464 72.4449 201.237 72.5964C201.01 72.7479 200.783 72.7479 200.631 72.5206L195.253 66.461C194.874 66.0823 194.344 65.6278 194.041 65.8551C193.738 66.0823 194.041 66.6883 194.344 67.1427L198.056 72.6721C198.207 72.8994 198.132 73.1266 197.98 73.2781C197.829 73.4296 197.526 73.4296 197.374 73.2781C195.783 71.9147 194.117 70.5513 192.451 69.2636C193.057 71.6117 194.874 73.8083 197.753 75.9291C198.586 76.5351 199.419 77.0653 200.252 77.5955C204.343 79.7922 207.6 83.3522 209.493 87.5939C209.645 87.8211 209.569 88.1241 209.342 88.1999C209.19 88.4271 209.115 88.5028 209.039 88.5028Z" fill="#231F20"/>
<path d="M252.743 83.959C249.108 87.3675 240.927 100.244 233.504 113.651L218.128 81.3836L205.63 85.0952C205.63 85.0952 216.916 144.782 228.126 147.206C239.336 149.63 254.485 123.043 254.485 123.043L271.528 76.1572C271.528 76.233 258.197 78.8841 252.743 83.959Z" fill="#7BD3FC"/>
<path d="M295.615 152.81C296.221 159.551 296.751 165.308 297.13 168.792L295.767 166.823H254.864C253.804 157.582 252.213 141.297 251.759 127.435C251.532 119.406 251.683 112.286 252.592 107.666C254.789 96.6829 263.121 88.7297 268.423 84.791C270.013 83.5791 271.377 82.6701 272.134 82.2156L272.74 81.8369C273.27 81.231 273.876 80.7007 274.558 80.1705C279.936 76.0803 286.526 78.4284 291.071 80.322L291.677 80.5492C292.51 80.928 293.267 81.231 293.949 81.5339C294.252 81.6854 294.555 81.7612 294.782 81.8369C298.721 83.1246 298.872 86.7603 294.782 99.7128C293.04 105.166 293.267 118.801 294.1 132.738C294.555 139.63 295.085 146.675 295.615 152.81Z" fill="white"/>
<path d="M273.347 79.8672C273.196 80.5489 273.044 81.2306 272.817 81.8366C272.59 82.4425 272.362 83.1242 272.059 83.8817C271.908 84.1847 271.832 84.4877 271.681 84.7149C269.408 95.1677 267.287 119.027 266.681 127.284C266.53 129.935 266.076 134.252 265.545 140.009C265.47 141.145 265.318 142.281 265.242 143.493C265.242 143.569 265.242 143.569 265.242 143.645C265.091 144.932 265.015 146.22 264.864 147.583C264.864 147.659 264.864 147.735 264.864 147.811C264.788 148.795 264.712 149.78 264.636 150.84C264.561 151.749 264.485 152.582 264.409 153.491C264.03 157.582 263.727 162.051 263.424 166.747H244.64C245.397 159.097 246.23 151.219 246.912 143.796C247.291 140.085 247.669 136.525 247.972 133.04C249.639 116.225 251.002 102.666 251.76 98.8035C252.063 97.2886 252.441 95.8494 252.82 94.486C255.698 84.5634 260.698 80.0187 265.015 77.8978C265.318 77.7463 265.697 77.5949 266 77.4434C267.742 76.7617 269.56 76.3072 271.378 76.2314H271.529C271.984 76.2314 272.438 76.2314 272.665 76.2314H272.741C272.893 76.2314 273.044 76.2314 273.271 76.3072C273.423 76.6859 273.574 77.1404 273.499 77.5949C273.574 78.4281 273.499 79.1098 273.347 79.8672Z" fill="#7BD3FC"/>
<path d="M273.195 71.3087L271.983 84.0339C271.983 84.0339 272.665 91.2296 280.542 89.7905C285.314 88.8815 289.328 85.8517 291.601 81.5343L292.661 59.4167C292.737 58.5078 291.525 55.5537 292.434 47.449C283.042 46.4643 276.225 38.7383 276.225 38.7383C276.225 38.7383 272.589 43.283 270.998 44.7221C269.786 45.7826 268.65 46.9945 267.741 48.2822C266.226 50.6303 265.999 53.6601 265.848 56.3869C265.62 59.6439 265.62 62.8252 265.923 66.0823C266.756 72.2176 273.195 71.3087 273.195 71.3087Z" fill="white"/>
<path d="M278.496 90.4716C276.982 90.5473 275.467 90.0928 274.255 89.1839C272.74 87.8962 271.755 86.0784 271.528 84.109L272.664 71.8383C270.922 71.914 269.256 71.4595 267.816 70.4749C266.529 69.4144 265.696 67.8995 265.544 66.1574C265.241 62.9004 265.165 59.6433 265.468 56.3863C265.62 53.8109 265.847 50.4782 267.438 48.0543C268.347 46.6909 269.483 45.479 270.77 44.4185C272.285 43.0551 275.921 38.5104 275.921 38.5104C276.073 38.2832 276.376 38.2832 276.603 38.4347C276.603 38.4347 276.603 38.4347 276.679 38.5104C276.754 38.5862 283.496 46.1607 292.585 47.0696C292.736 47.0696 292.812 47.1454 292.888 47.2211C292.964 47.2969 292.964 47.4483 292.964 47.5241C292.282 53.6594 292.812 56.8407 293.039 58.2799C293.115 58.6586 293.191 59.0374 293.191 59.4161C293.191 59.4161 293.191 59.7948 292.131 81.5336C292.131 81.6094 292.131 81.6851 292.131 81.6851C289.782 86.0784 285.616 89.1839 280.693 90.1686C280.011 90.3958 279.254 90.4716 278.496 90.4716ZM272.437 84.109C272.664 85.7754 273.573 87.366 274.861 88.4264C276.3 89.4869 278.193 89.7899 280.542 89.3354C285.086 88.4265 289.025 85.5481 291.222 81.4579C291.297 79.8673 292.282 59.5676 292.282 59.4161C292.282 59.1131 292.206 58.8101 292.206 58.5071C291.676 55.0229 291.6 51.4628 292.055 47.9028C283.95 46.8424 277.966 41.0858 276.376 39.4951C275.467 40.6313 272.74 43.9641 271.452 45.1003C270.24 46.1607 269.18 47.2969 268.271 48.5845C266.832 50.8569 266.604 53.8109 266.453 56.462C266.226 59.6433 266.226 62.9003 266.529 66.0816C266.604 67.5208 267.286 68.8085 268.422 69.7174C270.392 71.2323 273.119 70.8536 273.119 70.8536C273.27 70.8536 273.422 70.8536 273.497 71.0051C273.573 71.0808 273.649 71.2323 273.649 71.3838L272.437 84.109Z" fill="#231F20"/>
<path d="M272.665 77.5948C272.665 77.5948 277.816 78.2766 281.451 75.0953C285.087 71.914 284.86 68.4297 284.86 68.4297C284.86 68.4297 278.952 71.6867 273.12 71.308L272.665 77.5948Z" fill="#231F20"/>
<path d="M273.953 78.0503C273.498 78.0503 273.044 78.0503 272.665 77.9745C272.438 77.9745 272.286 77.7473 272.286 77.5201L272.741 71.2332C272.741 71.006 272.968 70.7787 273.195 70.8545C278.8 71.2332 284.633 68.0519 284.708 68.0519C284.86 67.9762 285.011 67.9762 285.163 68.0519C285.314 68.1277 285.39 68.2792 285.39 68.4307C285.39 68.5821 285.542 72.2179 281.83 75.4749C279.558 77.2171 276.755 78.126 273.953 78.0503ZM273.195 77.1413C274.483 77.2171 278.346 77.2171 281.224 74.7175C282.966 73.2783 284.102 71.309 284.481 69.1124C282.815 69.9455 278.27 71.8392 273.65 71.6877L273.195 77.1413Z" fill="#231F20"/>
<path d="M279.254 53.4336C279.254 53.4336 274.634 59.1902 275.467 60.3264C276.3 61.4626 279.103 61.0081 279.103 61.0081" fill="white"/>
<path d="M277.967 61.5377C276.982 61.5377 275.771 61.3862 275.165 60.553C274.18 59.2654 277.437 54.9479 278.952 53.13C279.103 52.9785 279.406 52.9028 279.558 53.0543C279.709 53.2057 279.785 53.5087 279.634 53.6602C277.361 56.5385 275.543 59.5683 275.922 60.0228C276.528 60.7803 278.497 60.6288 279.179 60.553C279.406 60.553 279.634 60.7045 279.634 60.9318C279.634 61.159 279.482 61.3862 279.331 61.3862C278.876 61.5377 278.422 61.5377 277.967 61.5377Z" fill="#231F20"/>
<path d="M271.66 51.7272C271.755 50.9802 271.529 50.3361 271.156 50.2884C270.782 50.2408 270.402 50.8078 270.307 51.5547C270.212 52.3017 270.438 52.9458 270.811 52.9935C271.185 53.0411 271.564 52.4742 271.66 51.7272Z" fill="#231F20"/>
<path d="M283.353 51.7262C283.448 50.9793 283.223 50.3351 282.849 50.2875C282.476 50.2398 282.096 50.8068 282.001 51.5538C281.905 52.3007 282.131 52.9449 282.504 52.9925C282.878 53.0401 283.258 52.4732 283.353 51.7262Z" fill="#231F20"/>
<path d="M275.543 63.9609L278.876 63.4307C278.876 63.4307 279.103 68.2784 277.286 68.5056C275.468 68.7328 275.543 63.9609 275.543 63.9609Z" fill="white"/>
<path d="M277.134 68.8852C276.755 68.8852 276.452 68.7337 276.225 68.5065C275.089 67.4461 275.089 64.2648 275.165 63.8861C275.165 63.6588 275.316 63.5073 275.543 63.4316L278.876 62.9014C279.028 62.9014 279.103 62.9014 279.255 62.9771C279.331 63.0529 279.406 63.2043 279.406 63.2801C279.406 63.8103 279.634 68.5065 277.437 68.8095L277.134 68.8852ZM275.998 64.3405C275.998 65.5525 276.225 67.3703 276.755 67.9005C276.831 67.9763 276.983 68.052 277.134 68.052C278.119 67.9005 278.422 65.4767 278.346 63.9618L275.998 64.3405Z" fill="#231F20"/>
<path d="M289.025 52.524C290.086 50.3273 292.964 49.7971 295.085 50.4031C296.524 50.7818 297.585 51.9937 297.812 53.4329C297.888 54.3418 297.812 55.2508 297.585 56.084C297.206 57.6746 296.524 59.1895 295.615 60.5529C295.161 61.2346 294.555 61.8406 293.873 62.2193C292.964 62.6738 291.828 62.5223 291.07 61.7649" fill="white"/>
<path d="M292.813 62.9765C292.055 62.9765 291.298 62.6735 290.767 62.1433C290.54 61.9918 290.54 61.6888 290.692 61.5373C290.843 61.3101 291.146 61.3101 291.373 61.4616C291.979 62.0676 292.888 62.2191 293.721 61.8403C294.327 61.4616 294.933 60.9314 295.312 60.2497C296.221 58.962 296.903 57.4471 297.206 55.9322C297.433 55.099 297.509 54.2658 297.433 53.4326C297.281 52.145 296.297 51.0845 295.009 50.7815C293.04 50.1756 290.389 50.7058 289.48 52.6752C289.404 52.9024 289.101 52.9782 288.874 52.9024C288.647 52.8267 288.571 52.5237 288.647 52.2965C289.783 49.9484 292.888 49.2667 295.312 49.9484C296.903 50.3271 298.115 51.6905 298.342 53.3569C298.418 54.2658 298.418 55.2505 298.115 56.1595C297.736 57.8258 297.054 59.4165 296.07 60.7799C295.615 61.5373 294.933 62.2191 294.176 62.5978C293.721 62.9008 293.267 62.9765 292.813 62.9765Z" fill="#231F20"/>
<path d="M314.476 193.788L298.873 171.292L297.131 168.792L295.767 166.823H277.664C278.27 161.9 278.876 156.976 279.558 152.053C279.936 149.402 280.315 146.751 280.694 144.1C280.997 141.827 281.376 139.631 281.679 137.434C281.83 136.525 281.982 135.54 282.057 134.631C285.466 112.135 288.95 92.2899 290.541 83.2762C290.616 82.6703 290.768 82.2158 290.844 81.6856C290.919 81.1554 290.995 80.7009 291.071 80.2464C291.374 78.8073 291.525 78.0498 291.525 78.0498L291.828 78.1256C294.707 78.8073 297.509 79.6405 300.312 80.6251C304.554 82.14 308.795 84.1852 309.553 86.609C312.204 94.941 311.749 130.465 312.28 151.598C312.355 156.522 312.507 160.688 312.81 163.49C312.961 165.46 313.264 167.656 313.567 171.292C313.946 175.761 314.325 182.502 314.476 193.788Z" fill="#7BD3FC"/>
<path d="M288.269 139.555C284.406 138.874 280.846 137.131 277.286 135.541C275.847 134.935 274.332 134.405 272.817 133.874C271.075 133.344 269.332 132.284 267.439 132.208C266.303 132.208 266.606 133.799 266.984 134.48C267.439 135.011 267.969 135.465 268.575 135.844C269.711 136.601 271.984 137.965 272.438 139.328C270.999 139.707 269.484 139.555 267.969 139.707C266.378 139.858 264.788 140.085 263.197 140.464C261.606 140.843 260.092 141.146 258.577 141.525C257.289 141.903 255.774 141.979 254.562 142.585C254.259 142.737 253.956 142.964 253.88 143.343C253.805 144.554 256.532 144.403 257.213 144.327L269.635 142.964C265.318 143.343 261.001 144.176 256.759 145.312C256.38 145.388 256.001 145.615 255.698 145.918C254.638 147.509 259.107 147.584 259.561 147.584C261.834 147.66 264.106 147.584 266.454 147.433L260.849 148.342C259.637 148.569 258.349 148.72 257.138 149.099C256.456 149.251 255.85 149.554 255.32 150.008C255.244 150.084 255.168 150.16 255.168 150.235C255.168 150.387 255.32 150.463 255.395 150.538C256.456 150.993 257.592 151.144 258.728 151.144C261.076 151.22 263.349 151.069 265.697 150.69L258.804 151.447C258.198 151.447 257.592 151.674 257.138 152.053C257.062 152.432 257.213 152.886 257.516 153.114C257.895 153.341 258.274 153.417 258.652 153.492C261.228 153.795 263.727 153.492 266.303 153.492C269.105 153.492 271.832 153.341 274.559 152.962C280.013 152.28 285.315 150.69 290.238 148.266" fill="white"/>
<path d="M261.53 154.022C260.621 154.022 259.712 153.946 258.803 153.87C258.349 153.87 257.818 153.719 257.44 153.416C256.91 153.037 256.682 152.431 256.834 151.825C256.834 151.75 256.91 151.75 256.91 151.674C256.985 151.598 257.061 151.522 257.213 151.447C256.607 151.371 256.001 151.219 255.395 150.916C255.092 150.841 254.864 150.538 254.864 150.235C254.864 150.007 254.94 149.78 255.092 149.629C255.698 149.099 256.379 148.72 257.137 148.644C258.046 148.417 259.03 148.265 259.939 148.038H259.712C257.212 147.962 255.773 147.584 255.319 146.826C255.092 146.447 255.167 145.993 255.395 145.69C255.698 145.311 256.152 145.008 256.682 144.933L257.364 144.781C256.91 144.857 254.713 145.008 253.88 144.175C253.652 143.948 253.501 143.645 253.501 143.266C253.577 142.736 253.955 142.357 254.41 142.13C255.243 141.751 256.152 141.524 257.061 141.373C257.515 141.297 257.97 141.145 258.424 141.07C259.939 140.615 261.53 140.236 263.045 139.933C264.56 139.63 266.226 139.403 267.817 139.176C268.423 139.1 268.953 139.1 269.559 139.1C270.241 139.1 270.998 139.024 271.68 138.949C270.847 137.964 269.862 137.131 268.726 136.525L268.044 136.07C267.438 135.692 266.908 135.237 266.453 134.707C265.999 134.025 265.847 133.116 266.15 132.359C266.378 131.98 266.832 131.677 267.287 131.753C268.574 131.829 269.862 132.207 271.074 132.813C271.68 133.041 272.21 133.268 272.74 133.495C274.255 133.949 275.77 134.555 277.209 135.161C277.891 135.464 278.573 135.767 279.179 135.995C282.057 137.207 285.011 138.57 288.117 139.1C288.344 139.176 288.571 139.403 288.495 139.63C288.419 139.858 288.192 140.009 287.965 140.009C284.784 139.479 281.754 138.115 278.876 136.828L276.906 135.995C275.467 135.389 274.028 134.858 272.513 134.404C271.907 134.252 271.301 133.95 270.695 133.722C269.635 133.192 268.423 132.889 267.211 132.738C266.984 132.738 266.984 132.813 266.908 132.889C266.756 133.344 266.832 133.874 267.135 134.252C267.514 134.707 267.968 135.086 268.499 135.389L269.18 135.843C270.468 136.752 272.286 137.964 272.665 139.252C272.74 139.479 272.589 139.706 272.362 139.782C271.377 140.009 270.468 140.085 269.483 140.085C268.953 140.085 268.347 140.085 267.893 140.161C266.302 140.312 264.711 140.539 263.196 140.918C261.681 141.297 260.167 141.6 258.652 141.978C258.197 142.13 257.667 142.206 257.213 142.357C256.379 142.509 255.546 142.736 254.713 143.039C254.41 143.19 254.334 143.342 254.334 143.342C254.334 143.418 254.334 143.493 254.41 143.493C254.789 143.872 256.076 143.948 257.137 143.796L269.483 142.584H269.559C269.786 142.584 270.013 142.736 270.089 142.963C270.089 143.19 269.938 143.418 269.71 143.493C265.393 143.872 261.151 144.705 256.91 145.766C256.607 145.841 256.379 145.917 256.152 146.144C256.076 146.22 256.076 146.296 256.076 146.372C256.228 146.675 257.44 147.053 259.636 147.129C261.833 147.205 264.181 147.129 266.453 146.978C266.681 146.978 266.908 147.129 266.908 147.356C266.908 147.584 266.756 147.811 266.529 147.887L260.924 148.796C259.712 149.023 258.424 149.174 257.213 149.553C256.682 149.629 256.228 149.856 255.773 150.159C256.758 150.462 257.743 150.689 258.727 150.613C259.788 150.613 260.924 150.613 261.984 150.538L265.62 150.159C265.847 150.159 266.075 150.31 266.15 150.538C266.15 150.765 265.999 150.992 265.772 151.068C264.56 151.219 263.348 151.371 262.06 151.447L258.803 151.825C258.349 151.825 257.894 151.977 257.515 152.204C257.515 152.356 257.591 152.583 257.818 152.659C258.121 152.81 258.424 152.886 258.803 152.962C260.47 153.113 262.136 153.189 263.802 153.037C264.636 153.037 265.469 152.962 266.378 152.962H266.529C269.18 152.962 271.907 152.81 274.558 152.431C279.936 151.75 285.162 150.159 290.01 147.811C290.237 147.659 290.465 147.811 290.616 147.962C290.768 148.19 290.616 148.493 290.389 148.568C285.465 150.992 280.088 152.583 274.634 153.264C271.907 153.643 269.104 153.795 266.302 153.795C265.469 153.795 264.636 153.795 263.802 153.87C262.969 153.946 262.363 154.022 261.53 154.022Z" fill="#231F20"/>
<path d="M309.553 86.5332C309.553 86.5332 341.972 145.463 330.307 149.402C325.535 150.992 282.967 153.492 282.967 153.492L278.422 135.086L310.311 130.162L309.553 86.5332Z" fill="#7BD3FC"/>
<path d="M270.998 59.1142C270.771 59.1142 270.543 59.1142 270.316 59.1142C266.226 58.7355 263.12 55.0997 263.499 51.0095C263.878 46.9192 267.514 43.8137 271.604 44.1924C275.694 44.5711 278.8 48.2069 278.421 52.2971C278.269 54.2665 277.285 56.0844 275.77 57.3721C274.482 58.5082 272.816 59.1142 270.998 59.1142ZM270.998 45.0256C267.362 45.0256 264.408 47.9797 264.408 51.6154C264.408 55.2512 267.362 58.2053 270.998 58.2053C274.406 58.2053 277.285 55.6299 277.588 52.2214C277.891 48.5856 275.24 45.4043 271.604 45.1014C271.377 45.0256 271.225 45.0256 270.998 45.0256Z" fill="#231F20"/>
<path d="M285.617 59.1892C285.39 59.1892 285.163 59.1892 284.935 59.1892C280.845 58.7348 277.815 55.0233 278.27 50.933C278.724 46.9185 282.209 43.9645 286.223 44.2675C290.313 44.6462 293.419 48.2819 293.04 52.3722C292.737 56.2352 289.48 59.1892 285.617 59.1892ZM285.617 45.1006C281.981 45.1006 279.027 47.979 278.951 51.6147C278.951 55.2505 281.83 58.2046 285.466 58.2803C287.056 58.2803 288.571 57.7501 289.783 56.6897C291.146 55.5535 291.98 53.9628 292.131 52.2207C292.434 48.5849 289.783 45.4036 286.147 45.1006C285.996 45.1006 285.769 45.1006 285.617 45.1006Z" fill="#231F20"/>
<path d="M278.497 135.692C278.27 135.692 278.043 135.54 278.043 135.237C278.043 135.01 278.194 134.783 278.497 134.783L309.932 129.935L302.357 97.2892C302.281 97.062 302.433 96.8347 302.66 96.759C302.887 96.6832 303.115 96.8347 303.19 97.0619L310.841 130.163C310.841 130.314 310.841 130.39 310.765 130.541C310.689 130.617 310.613 130.693 310.462 130.769L278.497 135.692Z" fill="#231F20"/>
<path d="M246.835 144.326C246.532 144.326 246.381 144.099 246.381 143.796C246.457 143.342 252.289 95.1679 252.289 94.4861L252.743 94.5619L252.819 94.1074C253.198 94.1832 253.198 94.1832 252.289 102.364L247.29 143.948C247.29 144.099 247.063 144.326 246.835 144.326Z" fill="#231F20"/>
<path d="M239.639 125.24C239.488 125.24 239.336 125.164 239.261 125.013L220.173 86.7613C220.097 86.5341 220.173 86.2311 220.4 86.1554C220.627 86.0796 220.855 86.1554 221.006 86.3826L240.094 124.634C240.245 124.861 240.094 125.164 239.867 125.24C239.791 125.24 239.715 125.24 239.639 125.24Z" fill="#231F20"/>
<path d="M305.917 49.0394C305.69 49.0394 305.462 48.8879 305.387 48.6606C305.387 48.4334 305.538 48.2062 305.765 48.2062C305.765 48.2062 307.356 47.7517 310.31 44.8734C310.462 44.7219 310.765 44.7219 310.992 44.8734C311.143 45.0249 311.143 45.3279 310.992 45.4793C307.886 48.5849 306.144 49.0394 306.068 49.0394C306.068 49.0394 305.993 49.0394 305.917 49.0394Z" fill="#231F20"/>
<path d="M193.89 160.082L198.813 146.6L187.073 157.507C181.998 156.068 176.771 155.386 171.469 155.386C151.776 155.386 135.869 164.854 135.869 176.595C135.869 188.335 151.851 197.803 171.469 197.803C191.087 197.803 207.07 188.335 207.07 176.595C207.07 169.929 201.919 163.945 193.89 160.082Z" fill="white"/>
<path d="M171.469 198.257C151.548 198.257 135.339 188.562 135.339 176.594C135.339 164.627 151.548 154.931 171.469 154.931C176.696 154.931 181.922 155.613 186.921 156.976L198.435 146.296C198.662 146.145 198.965 146.145 199.116 146.296C199.268 146.448 199.268 146.599 199.192 146.826L194.42 159.855C202.752 164.021 207.524 170.08 207.524 176.594C207.6 188.486 191.39 198.257 171.469 198.257ZM171.469 155.84C152.079 155.84 136.324 165.081 136.324 176.519C136.324 187.956 152.079 197.197 171.469 197.197C190.86 197.197 206.615 187.956 206.615 176.519C206.615 170.307 201.919 164.475 193.663 160.536C193.435 160.461 193.284 160.158 193.435 159.93L197.601 148.417L187.376 157.885C187.224 158.037 187.073 158.037 186.921 157.961C181.846 156.522 176.696 155.84 171.469 155.84Z" fill="#D1D3D4"/>
<path d="M195.102 169.247H147.837C147.534 169.247 147.383 168.944 147.383 168.717C147.383 168.49 147.61 168.338 147.837 168.263H195.102C195.405 168.263 195.557 168.566 195.557 168.793C195.481 169.096 195.329 169.247 195.102 169.247Z" fill="#D1D3D4"/>
<path d="M195.102 177.351H147.837C147.534 177.351 147.307 177.124 147.307 176.821C147.307 176.518 147.534 176.291 147.837 176.291H195.102C195.405 176.291 195.632 176.518 195.632 176.821C195.632 177.124 195.329 177.351 195.102 177.351Z" fill="#D1D3D4"/>
<path d="M180.711 185.457H147.762C147.459 185.457 147.231 185.23 147.231 184.927C147.231 184.624 147.459 184.396 147.762 184.396H180.711C181.014 184.396 181.241 184.624 181.241 184.927C181.241 185.23 181.014 185.457 180.711 185.457Z" fill="#D1D3D4"/>
<path d="M148.594 32.9062L144.352 44.571L154.426 35.1786C158.819 36.3905 163.288 36.9964 167.833 36.9964C184.8 36.9964 198.51 28.816 198.51 18.7419C198.51 8.66777 184.8 0.487305 167.833 0.487305C150.866 0.487305 137.156 8.66777 137.156 18.7419C137.232 24.4985 141.701 29.5734 148.594 32.9062Z" fill="white"/>
<path d="M144.352 45.0248C144.277 45.0248 144.125 45.0248 144.049 44.9491C143.822 44.7976 143.746 44.5703 143.898 44.3431L147.988 33.2086C140.792 29.6486 136.702 24.4221 136.702 18.817C136.702 8.51568 150.715 0.0322266 167.909 0.0322266C185.103 0.0322266 199.116 8.43993 199.116 18.817C199.116 29.1941 185.103 37.526 167.909 37.526C163.44 37.526 158.971 36.9201 154.578 35.7082L144.655 44.8733C144.655 45.0248 144.504 45.0248 144.352 45.0248ZM167.909 1.01692C151.245 1.01692 137.687 8.97015 137.687 18.7413C137.687 24.0434 141.777 29.0426 148.821 32.4511C149.049 32.6026 149.124 32.8299 149.049 33.0571L145.564 42.6767L154.124 34.7235C154.275 34.572 154.426 34.572 154.578 34.6477C158.895 35.8597 163.364 36.4656 167.909 36.4656C184.573 36.4656 198.131 28.5124 198.131 18.7413C198.131 8.97015 184.573 1.01692 167.909 1.01692Z" fill="#D1D3D4"/>
<path d="M191.011 14.1204H150.26C149.957 14.1204 149.806 13.8175 149.806 13.5902C149.806 13.363 150.033 13.2115 150.26 13.1357H191.011C191.314 13.1357 191.465 13.4387 191.465 13.666C191.39 13.8932 191.238 14.1204 191.011 14.1204Z" fill="#D1D3D4"/>
<path d="M178.513 23.0589H150.26C149.957 23.0589 149.806 22.7559 149.806 22.5287C149.806 22.3014 150.033 22.15 150.26 22.0742H178.513C178.816 22.0742 178.968 22.3772 178.968 22.6044C178.968 22.8317 178.74 22.9832 178.513 23.0589Z" fill="#D1D3D4"/>
</svg>
